<svg width="80" height="94" viewBox="0 0 80 94" fill="none" xmlns="http://www.w3.org/2000/svg">
<g clip-path="url(#clip0_58_11)">
<path d="M0.87793 81.9563V81.8304H3.11068V81.9563H2.49605V90.517H3.11068V90.6429H0.87793V90.517H1.45493V81.9563H0.87793ZM9.32083 90.6429C8.97797 90.6429 8.71456 90.5673 8.53058 90.4163C8.35497 90.2652 8.26299 90.1141 8.25463 89.9631L8.24208 89.749V85.796C8.24208 85.133 8.07065 84.7091 7.7278 84.5245C7.55219 84.4406 7.33477 84.3986 7.07553 84.3986C6.54034 84.3986 6.0595 84.6126 5.63302 85.0406C5.20654 85.4603 4.9933 85.838 4.9933 86.1737V90.6429H4.11525V84.3482H4.9933V85.7834C5.13546 85.4225 5.39888 85.0868 5.78355 84.7763C6.16821 84.4573 6.59051 84.2979 7.05044 84.2979C7.51038 84.2979 7.8825 84.344 8.16682 84.4364C8.4595 84.5203 8.67274 84.642 8.80654 84.8014C9.0156 85.0616 9.12013 85.3973 9.12013 85.8086V89.749C9.12013 89.9924 9.16612 90.1813 9.25811 90.3155C9.35846 90.4414 9.45881 90.5086 9.55916 90.517L9.69713 90.5422H10.086V90.6429H9.32083ZM10.5953 87.7222C10.5953 86.6311 10.8587 85.7876 11.3855 85.1917C11.9123 84.5958 12.7026 84.2979 13.7562 84.2979C14.2496 84.2979 14.7472 84.4238 15.2489 84.6756V81.2135H16.127V89.749C16.127 89.9924 16.173 90.1813 16.2649 90.3155C16.3653 90.4414 16.4656 90.5086 16.566 90.517L16.704 90.5422H17.0928V90.6429H16.3277C15.9848 90.6429 15.7214 90.5673 15.5374 90.4163C15.3618 90.2652 15.2698 90.1141 15.2615 89.9631L15.2489 89.749V89.5476C15.09 89.8414 14.8266 90.1015 14.4587 90.3281C14.0907 90.5547 13.6559 90.668 13.1541 90.668C11.4482 90.6261 10.5953 89.6441 10.5953 87.7222ZM13.1667 90.5673C13.727 90.5673 14.2078 90.4163 14.6092 90.1141C15.0106 89.812 15.2238 89.514 15.2489 89.2203V84.7889C14.6552 84.5287 14.1451 84.3986 13.7186 84.3986C12.9743 84.3986 12.4141 84.6923 12.0378 85.2798C11.6615 85.8589 11.4733 86.6731 11.4733 87.7222C11.4733 89.6189 12.0378 90.5673 13.1667 90.5673ZM19.1265 90.6429C18.7836 90.6429 18.5202 90.5673 18.3362 90.4163C18.1606 90.2652 18.0686 90.1141 18.0603 89.9631L18.0477 89.749V84.3482H18.9258V89.749C18.9258 89.9924 18.9718 90.1813 19.0637 90.3155C19.1641 90.4414 19.2603 90.5086 19.3522 90.517L19.5028 90.5422H19.8916V90.6429H19.1265ZM18.123 82.9382C18.0226 82.8375 17.9725 82.7116 17.9725 82.5605C17.9725 82.4095 18.0226 82.2836 18.123 82.1829C18.2233 82.0738 18.3488 82.0192 18.4993 82.0192C18.6498 82.0192 18.7752 82.0738 18.8756 82.1829C18.9843 82.2836 19.0387 82.4095 19.0387 82.5605C19.0387 82.7116 18.9843 82.8375 18.8756 82.9382C18.7752 83.0389 18.6498 83.0893 18.4993 83.0893C18.3488 83.0893 18.2233 83.0389 18.123 82.9382ZM25.8326 90.6429C25.264 90.6429 24.8751 90.5338 24.6661 90.3155C24.4737 90.1309 24.3776 89.9714 24.3776 89.8372V89.5728C23.9678 90.3197 23.3114 90.6932 22.4082 90.6932C21.3546 90.6932 20.7567 90.2148 20.6145 89.258C20.5978 89.1573 20.5894 89.0566 20.5894 88.9559C20.5894 88.8468 20.6061 88.7293 20.6396 88.6034C20.673 88.4775 20.7692 88.339 20.9281 88.188C21.2459 87.8858 21.9441 87.7012 23.0229 87.634C23.2905 87.6089 23.5372 87.5963 23.7629 87.5963C23.9887 87.5963 24.1936 87.6047 24.3776 87.6214V85.5316C24.3609 85.5232 24.3609 85.4855 24.3776 85.4183C24.3943 85.3428 24.3776 85.2505 24.3274 85.1414C24.2856 85.0239 24.2271 84.9105 24.1518 84.8014C24.0765 84.6923 23.9427 84.6 23.7504 84.5245C23.5581 84.4406 23.3072 84.3986 22.9978 84.3986C22.6884 84.3986 22.3246 84.4573 21.9065 84.5748C21.4967 84.6839 21.1957 84.7931 21.0034 84.9022L20.9532 84.814C21.6974 84.4699 22.4542 84.2979 23.2236 84.2979C24.0849 84.2979 24.6535 84.4531 24.9295 84.7637C25.1469 85.0071 25.2556 85.2631 25.2556 85.5316V89.749C25.2556 89.9924 25.3016 90.1813 25.3936 90.3155C25.494 90.4414 25.5943 90.5086 25.6947 90.517L25.8326 90.5422H26.2215V90.6429H25.8326ZM22.6089 90.5925C23.0521 90.5925 23.4494 90.4414 23.8006 90.1393C24.1602 89.8288 24.3525 89.5308 24.3776 89.2455V87.7222C24.1518 87.7054 23.9218 87.697 23.6877 87.697C23.4619 87.697 23.2361 87.7096 23.0103 87.7348C22.3748 87.8103 21.9609 87.953 21.7685 88.1628C21.5762 88.3726 21.48 88.6622 21.48 89.0314C21.48 89.0986 21.4842 89.1741 21.4926 89.258C21.5678 90.1477 21.9399 90.5925 22.6089 90.5925ZM32.726 81.8304C32.8849 81.9898 32.9643 82.1955 32.9643 82.4472C32.9643 82.6571 32.9183 82.8711 32.8264 83.0893L30.5811 87.6592V90.6429H29.5399V87.9362L27.0312 81.8304H28.0974L30.4933 87.5081L32.6758 83.0893C32.7678 82.8795 32.8138 82.6613 32.8138 82.4347C32.8138 82.2081 32.7511 82.0318 32.6257 81.9059L32.726 81.8304ZM36.1931 90.6932C35.315 90.6932 34.6 90.4414 34.0481 89.9379C33.4962 89.4343 33.2202 88.658 33.2202 87.6089C33.2202 86.5597 33.5045 85.7456 34.0732 85.1665C34.6502 84.5874 35.3777 84.2979 36.2558 84.2979C37.1422 84.2979 37.8613 84.5497 38.4133 85.0532C38.9652 85.5568 39.2411 86.3331 39.2411 87.3822C39.2411 88.4314 38.9526 89.2455 38.3756 89.8246C37.807 90.4037 37.0795 90.6932 36.1931 90.6932ZM36.2809 84.3986C35.6453 84.3986 35.1185 84.6839 34.7004 85.2547C34.2822 85.817 34.0732 86.6059 34.0732 87.6214C34.0732 88.6286 34.2655 89.3755 34.6502 89.8623C35.0349 90.3491 35.545 90.5925 36.1805 90.5925C36.816 90.5925 37.3429 90.3114 37.761 89.749C38.1791 89.1783 38.3882 88.3894 38.3882 87.3822C38.3882 86.3667 38.1958 85.6156 37.8112 85.1288C37.4265 84.642 36.9164 84.3986 36.2809 84.3986ZM40.1766 87.7222C40.1766 86.6311 40.44 85.7876 40.9668 85.1917C41.4937 84.5958 42.2839 84.2979 43.3376 84.2979C44.1153 84.2979 44.9055 84.4364 45.7083 84.7133V90.7939C45.7 92.7914 44.8303 93.7902 43.0993 93.7902C42.1459 93.7902 41.3306 93.4797 40.6533 92.8586L40.7411 92.783C41.4602 93.3873 42.2463 93.6895 43.0993 93.6895C44.2533 93.6895 44.8303 92.7243 44.8303 90.7939V89.5476C44.6714 89.8414 44.408 90.1015 44.04 90.3281C43.6721 90.5547 43.2372 90.668 42.7355 90.668C41.0296 90.6261 40.1766 89.6441 40.1766 87.7222ZM42.748 90.5673C43.3083 90.5673 43.7891 90.4163 44.1905 90.1141C44.5919 89.812 44.8052 89.514 44.8303 89.2203V84.7763C44.2282 84.5245 43.7181 84.3986 43.2999 84.3986C42.5557 84.3986 41.9954 84.6923 41.6191 85.2798C41.2428 85.8589 41.0547 86.6731 41.0547 87.7222C41.0547 89.6189 41.6191 90.5673 42.748 90.5673ZM51.8262 90.6429C51.2576 90.6429 50.8687 90.5338 50.6597 90.3155C50.4673 90.1309 50.3712 89.9714 50.3712 89.8372V89.5728C49.9614 90.3197 49.305 90.6932 48.4018 90.6932C47.3482 90.6932 46.7503 90.2148 46.6081 89.258C46.5914 89.1573 46.583 89.0566 46.583 88.9559C46.583 88.8468 46.5997 88.7293 46.6332 88.6034C46.6666 88.4775 46.7628 88.339 46.9217 88.188C47.2395 87.8858 47.9377 87.7012 49.0165 87.634C49.2841 87.6089 49.5308 87.5963 49.7565 87.5963C49.9823 87.5963 50.1872 87.6047 50.3712 87.6214V85.5316C50.3544 85.5232 50.3544 85.4855 50.3712 85.4183C50.3879 85.3428 50.3712 85.2505 50.321 85.1414C50.2792 85.0239 50.2206 84.9105 50.1454 84.8014C50.0701 84.6923 49.9363 84.6 49.744 84.5245C49.5517 84.4406 49.3008 84.3986 48.9914 84.3986C48.682 84.3986 48.3182 84.4573 47.9001 84.5748C47.4903 84.6839 47.1893 84.7931 46.997 84.9022L46.9468 84.814C47.691 84.4699 48.4478 84.2979 49.2172 84.2979C50.0785 84.2979 50.6471 84.4531 50.9231 84.7637C51.1405 85.0071 51.2492 85.2631 51.2492 85.5316V89.749C51.2492 89.9924 51.2952 90.1813 51.3872 90.3155C51.4875 90.4414 51.5879 90.5086 51.6882 90.517L51.8262 90.5422H52.2151V90.6429H51.8262ZM48.6025 90.5925C49.0457 90.5925 49.4429 90.4414 49.7942 90.1393C50.1537 89.8288 50.3461 89.5308 50.3712 89.2455V87.7222C50.1454 87.7054 49.9154 87.697 49.6813 87.697C49.4555 87.697 49.2297 87.7096 49.0039 87.7348C48.3684 87.8103 47.9544 87.953 47.7621 88.1628C47.5698 88.3726 47.4736 88.6622 47.4736 89.0314C47.4736 89.0986 47.4778 89.1741 47.4861 89.258C47.5614 90.1477 47.9335 90.5925 48.6025 90.5925ZM56.568 84.7889C56.4342 84.6798 56.2167 84.5874 55.9157 84.5119C55.623 84.4364 55.4014 84.3986 55.2509 84.3986C55.1004 84.3986 55.0126 84.3986 54.9875 84.3986C54.5359 84.407 54.2098 84.5245 54.0091 84.7511C53.8084 84.9693 53.708 85.2169 53.708 85.4939C53.708 85.7708 53.7958 86.0058 53.9714 86.1989C54.1471 86.3835 54.3645 86.5304 54.6237 86.6395C54.8913 86.7402 55.1756 86.8577 55.4767 86.992C55.7861 87.1263 56.0704 87.2647 56.3296 87.4074C56.5972 87.5417 56.8188 87.7431 56.9944 88.0117C57.1701 88.2719 57.2579 88.5992 57.2579 88.9937C57.2579 89.3881 57.1199 89.7239 56.8439 90.0008C56.568 90.2778 56.2586 90.4624 55.9157 90.5547C55.5812 90.6471 55.2174 90.6932 54.8244 90.6932C53.9714 90.6932 53.3317 90.5044 52.9052 90.1267L52.9805 90.0512C53.1478 90.2106 53.3944 90.3407 53.7206 90.4414C54.0551 90.5422 54.377 90.5925 54.6864 90.5925C55.1798 90.5925 55.5854 90.4582 55.9032 90.1897C56.2293 89.9127 56.3924 89.5728 56.3924 89.1699C56.3924 88.7587 56.2711 88.4314 56.0286 88.188C55.7861 87.9362 55.4892 87.7431 55.138 87.6089C54.7951 87.4662 54.4481 87.3277 54.0969 87.1934C53.7457 87.0507 53.4488 86.8577 53.2063 86.6143C52.9638 86.3625 52.8425 86.073 52.8425 85.7456C52.8425 85.4183 52.9178 85.1539 53.0683 84.9525C53.2188 84.7427 53.4195 84.5958 53.6704 84.5119C54.0969 84.3692 54.5234 84.2979 54.9498 84.2979C55.669 84.2979 56.2293 84.4322 56.6307 84.7007L56.568 84.7889ZM63.2205 90.6429C62.8776 90.6429 62.6142 90.5673 62.4303 90.4163C62.2547 90.2652 62.1627 90.1141 62.1543 89.9631L62.1418 89.749V85.796C62.1418 85.133 61.9662 84.7091 61.6149 84.5245C61.4477 84.4406 61.2344 84.3986 60.9752 84.3986C60.4567 84.3986 59.9884 84.6126 59.5703 85.0406C59.1606 85.4603 58.9557 85.838 58.9557 86.1737V90.6429H58.0776V81.2135H58.9557V85.7834C59.0895 85.4225 59.3445 85.0868 59.7209 84.7763C60.0972 84.4573 60.5195 84.2979 60.9878 84.2979C61.7989 84.2979 62.3383 84.4406 62.6059 84.7259C62.8818 85.0029 63.0198 85.3638 63.0198 85.8086V89.749C63.0198 89.9924 63.0658 90.1813 63.1578 90.3155C63.2581 90.4414 63.3543 90.5086 63.4463 90.517L63.5968 90.5422H63.9857V90.6429H63.2205ZM69.8574 90.6429C69.2888 90.6429 68.8999 90.5338 68.6909 90.3155C68.4986 90.1309 68.4024 89.9714 68.4024 89.8372V89.5728C67.9926 90.3197 67.3362 90.6932 66.433 90.6932C65.3794 90.6932 64.7815 90.2148 64.6393 89.258C64.6226 89.1573 64.6142 89.0566 64.6142 88.9559C64.6142 88.8468 64.631 88.7293 64.6644 88.6034C64.6979 88.4775 64.794 88.339 64.9529 88.188C65.2707 87.8858 65.9689 87.7012 67.0477 87.634C67.3153 87.6089 67.562 87.5963 67.7878 87.5963C68.0135 87.5963 68.2184 87.6047 68.4024 87.6214V85.5316C68.3857 85.5232 68.3857 85.4855 68.4024 85.4183C68.4191 85.3428 68.4024 85.2505 68.3522 85.1414C68.3104 85.0239 68.2519 84.9105 68.1766 84.8014C68.1013 84.6923 67.9675 84.6 67.7752 84.5245C67.5829 84.4406 67.332 84.3986 67.0226 84.3986C66.7132 84.3986 66.3494 84.4573 65.9313 84.5748C65.5216 84.6839 65.2205 84.7931 65.0282 84.9022L64.978 84.814C65.7222 84.4699 66.479 84.2979 67.2484 84.2979C68.1097 84.2979 68.6783 84.4531 68.9543 84.7637C69.1717 85.0071 69.2804 85.2631 69.2804 85.5316V89.749C69.2804 89.9924 69.3264 90.1813 69.4184 90.3155C69.5188 90.4414 69.6191 90.5086 69.7195 90.517L69.8574 90.5422H70.2463V90.6429H69.8574ZM66.6337 90.5925C67.077 90.5925 67.4742 90.4414 67.8254 90.1393C68.185 89.8288 68.3773 89.5308 68.4024 89.2455V87.7222C68.1766 87.7054 67.9466 87.697 67.7125 87.697C67.4867 87.697 67.2609 87.7096 67.0351 87.7348C66.3996 87.8103 65.9857 87.953 65.7933 88.1628C65.601 88.3726 65.5048 88.6622 65.5048 89.0314C65.5048 89.0986 65.509 89.1741 65.5174 89.258C65.5926 90.1477 65.9648 90.5925 66.6337 90.5925ZM72.7745 90.6429C72.0386 90.6429 71.5745 90.4498 71.3822 90.0638C71.3404 89.9798 71.3195 89.9043 71.3195 89.8372V81.2135H72.1975V89.749C72.1975 89.9924 72.2435 90.1813 72.3355 90.3155C72.4358 90.4414 72.5362 90.5086 72.6365 90.517L72.7745 90.5422H73.1634V90.6429H72.7745ZM79.0446 90.6429C78.476 90.6429 78.0871 90.5338 77.8781 90.3155C77.6857 90.1309 77.5896 89.9714 77.5896 89.8372V89.5728C77.1798 90.3197 76.5234 90.6932 75.6202 90.6932C74.5666 90.6932 73.9687 90.2148 73.8265 89.258C73.8098 89.1573 73.8014 89.0566 73.8014 88.9559C73.8014 88.8468 73.8181 88.7293 73.8516 88.6034C73.885 88.4775 73.9812 88.339 74.1401 88.188C74.4579 87.8858 75.1561 87.7012 76.2349 87.634C76.5025 87.6089 76.7491 87.5963 76.9749 87.5963C77.2007 87.5963 77.4056 87.6047 77.5896 87.6214V85.5316C77.5728 85.5232 77.5728 85.4855 77.5896 85.4183C77.6063 85.3428 77.5896 85.2505 77.5394 85.1414C77.4976 85.0239 77.439 84.9105 77.3638 84.8014C77.2885 84.6923 77.1547 84.6 76.9624 84.5245C76.7701 84.4406 76.5192 84.3986 76.2098 84.3986C75.9004 84.3986 75.5366 84.4573 75.1185 84.5748C74.7087 84.6839 74.4077 84.7931 74.2153 84.9022L74.1652 84.814C74.9094 84.4699 75.6662 84.2979 76.4356 84.2979C77.2969 84.2979 77.8655 84.4531 78.1415 84.7637C78.3589 85.0071 78.4676 85.2631 78.4676 85.5316V89.749C78.4676 89.9924 78.5136 90.1813 78.6056 90.3155C78.7059 90.4414 78.8063 90.5086 78.9066 90.517L79.0446 90.5422H79.4335V90.6429H79.0446ZM75.8209 90.5925C76.2641 90.5925 76.6613 90.4414 77.0126 90.1393C77.3721 89.8288 77.5645 89.5308 77.5896 89.2455V87.7222C77.3638 87.7054 77.1338 87.697 76.8997 87.697C76.6739 87.697 76.4481 87.7096 76.2223 87.7348C75.5868 87.8103 75.1728 87.953 74.9805 88.1628C74.7882 88.3726 74.692 88.6622 74.692 89.0314C74.692 89.0986 74.6962 89.1741 74.7045 89.258C74.7798 90.1477 75.1519 90.5925 75.8209 90.5925Z" fill="#F15A29"/>
<path d="M40.343 72.6256C58.8012 72.6256 73.7646 57.6077 73.7646 39.0822C73.7646 20.5566 58.8012 5.53873 40.343 5.53873C21.8847 5.53873 6.92139 20.5566 6.92139 39.0822C6.92139 57.6077 21.8847 72.6256 40.343 72.6256Z" fill="url(#paint0_radial_58_11)" stroke="#F15A29" stroke-width="0.5"/>
<path d="M75.1424 39.1527C75.1424 58.4459 59.5592 74.086 40.336 74.086C21.1127 74.086 5.5293 58.4459 5.5293 39.1527C5.5293 19.8593 21.1127 4.21912 40.336 4.21912C59.5592 4.21912 75.1424 19.8593 75.1424 39.1527ZM6.37465 39.1527C6.37465 57.9773 21.5796 73.2378 40.336 73.2378C59.0923 73.2378 74.2973 57.9773 74.2973 39.1527C74.2973 20.3279 59.0923 5.06752 40.336 5.06752C21.5796 5.06752 6.37465 20.3279 6.37465 39.1527Z" fill="url(#paint1_radial_58_11)"/>
<path d="M23.7607 56.2282C23.7607 54.2847 25.3307 52.7088 27.2674 52.7088H53.8694C55.8061 52.7088 57.376 54.2847 57.376 56.2282H23.7607Z" fill="white"/>
<path d="M26.4214 51.9809C26.4214 50.0371 27.9913 48.4615 29.928 48.4615H51.2122C53.1486 48.4615 54.7188 50.0371 54.7188 51.9809H26.4214Z" fill="white"/>
<path d="M28.7183 47.733C28.7183 45.7892 30.2884 44.2136 32.2249 44.2136H48.8189C50.7556 44.2136 52.3255 45.7892 52.3255 47.733H28.7183Z" fill="white"/>
<path d="M57.9421 73.1882C60.4584 73.1882 62.4984 71.1408 62.4984 68.6152C62.4984 66.0897 60.4584 64.0423 57.9421 64.0423C55.4257 64.0423 53.3857 66.0897 53.3857 68.6152C53.3857 71.1408 55.4257 73.1882 57.9421 73.1882Z" fill="#F15A29"/>
<path d="M57.3543 71.2181L57.1193 71.1138C57.1346 70.8153 57.1346 70.5165 57.1193 70.218C57.1229 70.1973 57.1237 70.1763 57.1223 70.1553H57.1906C57.3782 70.1316 57.4881 70.1075 57.4881 70.0569C57.5446 69.9315 57.393 69.7583 57.3217 69.6775C57.2918 69.6478 57.2578 69.6227 57.2205 69.6031H57.2057H57.1906H57.1639L57.0747 69.5642C57.0223 69.5166 56.9604 69.4811 56.8932 69.4596H56.8634C56.8634 69.4747 56.8634 69.4954 56.8634 69.5731C56.862 69.5891 56.862 69.605 56.8634 69.621C56.8634 69.6506 56.8634 69.6685 56.8634 69.6926C56.8651 69.7035 56.8651 69.7144 56.8634 69.7253C56.8531 69.7737 56.833 69.8196 56.804 69.8596C56.7798 69.8817 56.7508 69.8982 56.7193 69.9075C56.6881 69.9167 56.6549 69.9189 56.6226 69.9133C56.6279 69.9595 56.6437 70.004 56.6691 70.0429C56.6942 70.0815 56.7282 70.1139 56.7683 70.1374C56.8021 70.1562 56.8397 70.1665 56.8784 70.1674H56.8991C56.8977 70.176 56.8977 70.1853 56.8991 70.1942C56.8846 70.5053 56.9086 70.8172 56.9704 71.1227C56.932 71.2629 57.0092 71.3466 57.1759 71.3107C57.2035 71.3063 57.2316 71.3063 57.2592 71.3107C57.3021 71.3219 57.3459 71.33 57.3899 71.3348H57.5477C57.5564 71.3351 57.565 71.3337 57.5728 71.3306C57.5809 71.3275 57.5881 71.3225 57.594 71.3163C57.5998 71.3102 57.6046 71.3026 57.6074 71.2945C57.6102 71.2864 57.611 71.2775 57.6102 71.2691L57.3543 71.2181Z" fill="white"/>
<path d="M59.836 66.2171C59.3897 66.2171 59.0296 66.1903 58.7263 66.1724C58.5694 66.1564 58.411 66.1746 58.2622 66.2261C58.1381 66.2723 58.0233 66.34 57.9229 66.4261C57.7574 66.5573 57.6166 66.7171 57.5065 66.8978C57.4059 66.8304 57.2919 66.7853 57.1723 66.7658C57.0527 66.7462 56.9303 66.7526 56.8133 66.7845L56.4414 66.8861C56.5211 66.8349 56.5978 66.7792 56.6705 66.7188C56.7687 66.6387 56.8612 66.552 56.9473 66.4589C56.9919 66.5277 57.0572 66.6052 57.1316 66.6024C57.206 66.5993 57.2506 66.5666 57.322 66.4382C57.3933 66.3097 57.5006 66.3783 57.6197 66.2619C57.6584 66.2219 57.6941 66.1788 57.7267 66.1335C57.914 66.1335 57.8694 65.9872 57.8694 65.9872L56.8938 66.2946L56.6942 66.3576C56.5641 66.3763 56.435 66.4023 56.3076 66.4351C56.1917 66.465 56.0935 66.4977 56.0102 66.5246C55.7917 66.5892 55.5932 66.7084 55.4329 66.8709C55.3769 66.9221 55.3393 66.9904 55.3259 67.0651C55.296 67.2414 55.5282 67.4115 55.5937 67.4621C56.0219 67.7609 56.6973 67.5578 56.8462 67.5041C56.5641 67.7626 56.3871 68.1167 56.3491 68.4983C56.3491 68.6832 56.3313 68.8475 56.4414 68.9552C56.5128 69.017 56.5883 69.0741 56.6675 69.1253C56.6756 69.1365 56.6825 69.1485 56.6884 69.1611C56.7433 69.2797 56.7709 69.4095 56.7687 69.5402C56.7687 69.6 56.7182 69.609 56.6736 69.6121C56.629 69.6149 56.5903 69.6121 56.5783 69.6716C56.5652 69.7052 56.561 69.7416 56.5663 69.7771C56.5716 69.8126 56.5858 69.8465 56.6081 69.8748C56.6318 69.9047 56.7419 69.8748 56.7597 69.8238C56.8149 69.7195 56.8297 69.5983 56.8016 69.4836C56.8016 69.4417 56.8016 69.412 56.8016 69.3969C56.8016 69.3821 56.8283 69.3969 56.864 69.3969H56.8938H56.9144L57.0544 69.4299C57.1085 69.4484 57.1589 69.4769 57.2029 69.5133V69.4506H57.1912L57.2091 69.2805L57.2358 69.2C57.2587 69.1314 57.2729 69.0601 57.2774 68.9879V68.961C57.2799 68.8055 57.2506 68.6511 57.1912 68.5073C57.1411 68.3478 57.1411 68.1769 57.1912 68.0174V68.0026L57.4142 67.8414C57.6258 67.8381 57.8321 67.7751 58.0094 67.6593C58.1451 67.5645 58.2602 67.4428 58.3472 67.3015C58.4342 67.1602 58.4913 67.0024 58.515 66.8382C58.7439 66.9017 58.9852 66.9017 59.2141 66.8382C59.4756 66.7512 59.7041 66.5853 59.8686 66.3635C59.8923 66.4471 59.931 66.5487 60.0024 66.5635C60.0737 66.5783 60.1245 66.5635 60.2226 66.444C60.3207 66.3246 60.4071 66.4172 60.5468 66.3277C60.5925 66.2955 60.6363 66.2605 60.6778 66.223L60.8473 66.1097L59.836 66.2171Z" fill="white"/>
<path d="M69.9592 27.3432C72.4755 27.3432 74.5155 25.2959 74.5155 22.7703C74.5155 20.2447 72.4755 18.1974 69.9592 18.1974C67.4428 18.1974 65.4028 20.2447 65.4028 22.7703C65.4028 25.2959 67.4428 27.3432 69.9592 27.3432Z" fill="#F15A29"/>
<path d="M68.6203 24.8095C68.5261 24.7708 68.4377 24.7192 68.3577 24.6563H68.3393C68.2713 24.5866 68.2256 24.498 68.208 24.4019C68.1969 24.1028 68.2576 23.8053 68.3853 23.5347L68.2663 23.5807C68.1804 23.6173 68.0901 23.6411 67.9976 23.6512C67.9547 24.3774 68.0188 24.218 67.9976 24.6317C67.9976 24.7359 67.9761 24.834 68.0218 24.8738C68.0678 24.9136 68.2418 24.8493 68.3669 24.8738H68.4249C68.4949 24.9015 68.5676 24.922 68.6418 24.9351C68.7608 24.9535 68.8921 24.9351 68.8951 24.9351C68.8982 24.9351 68.8065 24.8922 68.6203 24.8095Z" fill="white"/>
<path d="M68.532 23.2773C68.3977 23.2252 68.2664 23.1731 68.1381 23.1149C68.0565 23.0861 67.9793 23.0459 67.909 22.9954L67.8906 23.0322L67.8418 23.0689L67.7992 23.0965C67.7716 23.1149 67.7593 23.1302 67.7381 23.1455L67.7044 23.1639C67.6562 23.1899 67.6032 23.2056 67.5489 23.2099C67.5124 23.205 67.4775 23.1924 67.4463 23.1728C67.4154 23.1533 67.3889 23.1272 67.3685 23.0965C67.2966 23.2541 67.2601 23.4257 67.2618 23.5991C67.2618 23.7645 67.3014 23.8136 67.3198 23.835C67.3722 23.8804 67.4399 23.9045 67.509 23.9024C67.6071 23.897 67.7036 23.8774 67.7961 23.8442C67.8814 23.8166 67.967 23.7921 68.0495 23.7584C68.3854 23.5746 68.5931 23.4612 68.5808 23.3386C68.5808 23.3386 68.5777 23.3171 68.532 23.2773Z" fill="white"/>
<path d="M67.5672 23.1702C67.6648 23.1586 67.7542 23.1105 67.8175 23.0354C67.8395 23.0144 67.8599 22.9918 67.8786 22.9679C67.8677 22.9572 67.8582 22.9448 67.8512 22.9312L67.8175 22.9526C67.8041 22.9645 67.7885 22.9738 67.7718 22.9802C67.7718 22.9802 67.7381 22.9802 67.662 22.9526C67.6335 22.9377 67.604 22.9254 67.5733 22.9158C67.5466 22.9072 67.5176 22.9072 67.4908 22.9158C67.4641 22.9354 67.4429 22.9618 67.4298 22.9925C67.4083 23.0323 67.3963 23.0537 67.3994 23.0691C67.4025 23.0844 67.4939 23.1702 67.5672 23.1702Z" fill="white"/>
<path d="M72.4275 24.7482C72.2263 24.5241 72.0376 24.2888 71.8628 24.0434C71.6621 23.7906 71.4921 23.5149 71.356 23.2221C71.3245 23.2153 71.2944 23.2028 71.2674 23.1854C71.2404 23.1681 71.2167 23.1463 71.1972 23.121C71.1487 23.036 71.1138 22.944 71.0935 22.8483C71.0832 22.8134 71.0656 22.7811 71.0419 22.7537C71.0182 22.7262 70.9889 22.7041 70.956 22.6889C70.9131 22.6692 70.8755 22.6399 70.8459 22.6031C70.7941 22.5327 70.8459 22.4867 70.8186 22.3641C70.8033 22.3182 70.7606 22.2262 70.7422 22.1772C70.7406 22.1588 70.7406 22.1404 70.7422 22.122V22.0914C70.7492 22.0065 70.7788 21.925 70.8278 21.8554C70.8964 21.931 70.951 22.0182 70.9895 22.1129C71.0076 22.1644 71.0076 22.2206 70.9895 22.2722C70.9622 22.3611 70.8889 22.3825 70.8797 22.4806C70.873 22.5067 70.873 22.5341 70.8797 22.5602C70.9031 22.5984 70.9385 22.6276 70.9803 22.643C71.0349 22.6671 71.0784 22.7108 71.1024 22.7656C71.1331 22.833 71.1484 22.9096 71.1726 22.9801C71.1888 23.0334 71.2206 23.0805 71.2643 23.1149C71.2827 23.1149 71.3193 23.1578 71.3438 23.1486C71.368 23.1394 71.3742 23.0444 71.3619 22.9371C71.3549 22.8014 71.3388 22.6662 71.3131 22.5327C71.3 22.4834 71.2805 22.436 71.2551 22.3917C71.2125 22.3321 71.1776 22.2672 71.1514 22.1987C71.1475 22.1712 71.1475 22.1434 71.1514 22.1159C71.1514 22.0638 71.1514 21.9811 71.1696 21.8799C71.2295 21.6075 71.2521 21.3281 71.2367 21.0495C71.2094 20.8963 71.191 20.7952 71.1085 20.7431C70.907 20.6021 70.434 20.7737 70.211 21.0955C70.0613 21.313 70.0033 21.6134 69.8781 21.6501C69.8087 21.6677 69.7351 21.6601 69.6705 21.6287C69.5386 21.5578 69.3926 21.518 69.2432 21.5122C69.0397 21.4979 68.8367 21.5422 68.6575 21.6399C68.4786 21.7376 68.3311 21.8847 68.2324 22.0638C68.1502 22.263 68.199 22.4162 68.037 22.692C67.9913 22.7685 67.9381 22.8403 67.8784 22.9065V22.9218C67.8879 22.9364 67.8993 22.9497 67.9119 22.9617C67.9933 23.018 68.0813 23.0633 68.1744 23.0965C68.2692 23.1394 68.3668 23.1792 68.4797 23.216C68.5042 23.1608 68.541 23.0812 68.5898 22.9892C68.6609 22.8053 68.7749 22.6414 68.9226 22.5112C68.9438 22.4959 69.1944 22.3212 69.356 22.4101C69.4294 22.4499 69.414 22.4989 69.5453 22.6859C69.6016 22.7752 69.6716 22.8549 69.753 22.9218C69.8597 23.0015 69.9239 22.9862 70.1011 23.0383C70.3829 23.1262 70.6383 23.2843 70.8429 23.4979C70.9711 23.6511 70.9376 23.6787 71.0812 23.8319C71.2019 23.9617 71.3471 24.066 71.5085 24.1384C71.7131 24.2303 71.8413 24.215 71.8628 24.2977C71.8843 24.3805 71.768 24.4448 71.7895 24.6042C71.7915 24.6295 71.7984 24.6542 71.8101 24.6768C71.8215 24.6994 71.8374 24.7195 71.8567 24.7359C71.8834 24.7523 71.9138 24.7618 71.9453 24.7635C72.0855 24.7819 72.107 24.7482 72.1772 24.7635C72.2475 24.7788 72.2475 24.8156 72.2963 24.8524C72.3202 24.8716 72.347 24.8871 72.3757 24.8983C72.4337 24.9259 72.5466 24.9627 72.565 24.9351C72.5834 24.9075 72.4705 24.788 72.4275 24.7482Z" fill="white"/>
<path d="M74.7267 43.6551C77.2431 43.6551 79.283 41.6077 79.283 39.0822C79.283 36.5566 77.2431 34.5092 74.7267 34.5092C72.2103 34.5092 70.1704 36.5566 70.1704 39.0822C70.1704 41.6077 72.2103 43.6551 74.7267 43.6551Z" fill="#F15A29"/>
<path d="M75.738 36.9733C75.6663 36.8362 75.578 36.7087 75.4751 36.5931C75.3904 36.4958 75.3215 36.4423 75.2181 36.3198L75.0021 36.2725L74.9302 36.2443C74.8337 36.1939 74.7225 36.1805 74.6169 36.2065H74.5951C74.3091 36.2664 74.0413 36.3923 73.8121 36.5744C73.7973 36.6049 73.7848 36.6362 73.7745 36.6687C73.731 36.6709 73.6886 36.6849 73.6524 36.7095C73.6134 36.7341 73.5802 36.7671 73.5551 36.8063C73.5303 36.8455 73.5144 36.8897 73.5086 36.9358C73.5431 36.9272 73.5794 36.9269 73.6142 36.935C73.6491 36.9431 73.6817 36.9596 73.709 36.9828C73.7396 37.0214 73.7611 37.0665 73.7714 37.1149C73.7731 37.1264 73.7731 37.1381 73.7714 37.1496C73.7714 37.1714 73.7714 37.1904 73.7714 37.2187C73.7714 37.2469 73.7714 37.2469 73.7714 37.2657C73.7714 37.3443 73.7714 37.3664 73.7714 37.3821C73.7714 37.3977 73.8152 37.4103 73.9749 37.3348L74.0658 37.2909C74.1321 37.2623 74.1926 37.2218 74.2445 37.1714C74.3133 37.1023 74.4635 36.9107 74.4042 36.7881C74.3947 36.7408 74.3038 36.7095 74.141 36.7095C74.2249 36.6726 74.3038 36.625 74.3757 36.568C74.4688 36.4949 74.5502 36.4079 74.6169 36.3103C74.6484 36.3732 74.6796 36.392 74.7047 36.3984C74.7429 36.4068 74.7824 36.4068 74.8206 36.3984C74.8413 36.3934 74.8624 36.3934 74.8831 36.3984C74.938 36.4085 74.9935 36.4149 75.0492 36.4172H75.1774C75.1774 36.4485 75.1774 36.4893 75.2465 36.5302C75.2429 36.5657 75.2429 36.6015 75.2465 36.6371C75.2652 36.7786 75.3748 36.8099 75.3561 36.9042C75.3121 37.1118 75.4311 37.1557 75.5125 37.1557L75.6254 37.0866C75.5679 37.3885 75.6212 37.701 75.7756 37.9665C75.859 38.0904 75.9654 38.1973 76.0889 38.2809C75.9406 38.3917 75.7631 38.4563 75.5783 38.4664C75.2652 38.4664 75.0868 38.2871 74.8142 38.3626C74.7114 38.3951 74.6188 38.4536 74.5449 38.5324H74.3791V38.5134V38.4947C74.301 38.3814 74.2556 38.2488 74.2475 38.1111C74.2445 38.0121 74.2288 37.9139 74.2004 37.8188C74.1823 37.7555 74.1572 37.6943 74.1254 37.6366C74.1254 37.5519 74.1254 37.4607 74.1254 37.3695C74.0585 37.4123 73.9858 37.4453 73.9094 37.4668C73.9094 37.4668 73.9094 37.4668 73.8905 37.4668C73.8801 37.4643 73.8695 37.4643 73.8592 37.4668C73.7745 37.4951 73.7589 37.4668 73.7778 37.3821C73.7837 37.3351 73.7837 37.2875 73.7778 37.2405C73.762 37.1619 73.7288 37.0878 73.6806 37.0237C73.6588 36.9798 73.5493 36.9451 73.5242 36.9733C73.5016 37.0024 73.4877 37.0371 73.4832 37.0738C73.4787 37.1101 73.4843 37.1473 73.4991 37.1809C73.4991 37.2405 73.5523 37.2343 73.5961 37.2374C73.6399 37.2405 73.6964 37.2374 73.6931 37.313C73.69 37.3882 73.6931 37.379 73.6931 37.4103C73.6931 37.4417 73.6524 37.5108 73.6337 37.5519C73.522 37.7021 73.4498 37.8784 73.4238 38.0641C73.43 38.1727 73.4732 38.2759 73.5459 38.3562C73.7486 38.6376 73.9911 38.8877 74.2662 39.0981C74.2266 40.044 74.2813 40.9916 74.429 41.9268L74.116 42.065L73.8935 42.1279H73.7935C73.7935 42.1279 73.7745 42.244 73.8718 42.244C73.9688 42.244 73.9186 42.2284 73.9186 42.2284C73.9769 42.2373 74.0354 42.2426 74.0939 42.244C74.1692 42.244 74.31 42.2158 74.3916 42.2158C74.473 42.2158 74.4415 42.244 74.5293 42.244C74.5561 42.2443 74.582 42.2368 74.6046 42.2222C74.6202 42.2071 74.6325 42.1892 74.6406 42.1691C74.6486 42.1489 74.6523 42.1274 74.6514 42.1058C74.6514 42.0807 74.6514 42.0242 74.548 41.936C74.6799 41.7329 74.7638 41.5018 74.793 41.2612C74.8223 41.0204 74.7964 40.7761 74.7172 40.547L74.7548 40.4746C74.8794 40.2264 74.9497 39.9542 74.9614 39.6764C74.9661 39.5332 74.9544 39.3896 74.9271 39.2489C75.0704 39.24 75.2128 39.2201 75.3528 39.1893C75.7246 39.153 76.0711 38.9845 76.33 38.7146C76.4112 38.6253 76.4691 38.5173 76.499 38.4004C76.5773 37.995 76.1954 37.7404 75.738 36.9733Z" fill="white"/>
<path d="M22.7233 14.1368C25.2397 14.1368 27.2796 12.0894 27.2796 9.56387C27.2796 7.03831 25.2397 4.99094 22.7233 4.99094C20.2069 4.99094 18.167 7.03831 18.167 9.56387C18.167 12.0894 20.2069 14.1368 22.7233 14.1368Z" fill="#F15A29"/>
<path d="M25.4828 10.1882C25.4601 10.1717 25.4347 10.1594 25.4078 10.1519C25.3867 10.1505 25.3655 10.1538 25.3459 10.1615C25.3262 10.1692 25.3084 10.1812 25.2938 10.1965C25.2537 9.93539 25.1464 9.68926 24.9825 9.48243C24.8651 9.33472 24.7208 9.21073 24.5573 9.11703L24.2155 8.97477C24.1711 8.53401 23.9969 8.11646 23.7152 7.77538C23.6154 7.64879 23.4826 7.55227 23.3317 7.49643C23.1823 7.44109 23.0196 7.43309 22.8655 7.47349C22.7115 7.51388 22.5735 7.60075 22.4702 7.72236C22.4489 7.75431 22.432 7.78903 22.4201 7.82557C22.3986 7.92362 22.362 8.01771 22.3117 8.10452C22.2066 8.24541 22.0754 8.3647 21.9254 8.45596C21.6225 8.69865 21.4669 8.81858 21.4029 8.97757C21.374 9.04525 21.3508 9.11521 21.3335 9.18678C21.3335 9.22303 21.314 9.25929 21.3057 9.28998C21.3231 9.29303 21.3399 9.29868 21.3557 9.30671L21.528 9.38202C21.5613 9.40155 21.578 9.41271 21.5808 9.42944C21.5788 9.44729 21.571 9.46396 21.5586 9.47686L21.528 9.50475C21.4213 9.59425 21.3519 9.72065 21.3335 9.85899C21.3301 9.88439 21.336 9.91016 21.3501 9.93153C21.3696 9.97615 21.4085 10.0152 21.4363 10.0124C21.4773 10.0029 21.5151 9.98267 21.5459 9.95377C21.5766 9.92487 21.5992 9.88834 21.6114 9.84786C21.6364 9.78648 21.6114 9.76418 21.5641 9.73069C21.5169 9.69723 21.4835 9.64701 21.528 9.5968C21.6187 9.48165 21.7323 9.38667 21.8615 9.31787L21.906 9.30114C22.0002 9.29546 22.0935 9.2786 22.1839 9.25093C22.3451 9.19794 22.4173 9.02499 22.5813 8.7851C22.6922 8.63075 22.8148 8.48525 22.9482 8.34998C23.0545 8.53653 23.1812 8.71054 23.3261 8.8688C23.6457 9.22303 23.9181 9.35133 24.5434 9.78647C24.6991 9.89527 24.9381 10.0654 25.2243 10.283C25.2104 10.4169 25.1937 10.5619 25.1799 10.6846C25.1772 10.705 25.1697 10.7245 25.1581 10.7414C25.1465 10.7584 25.1311 10.7724 25.1132 10.7823H24.9937C24.9937 10.7823 24.9937 10.9162 25.0965 10.905H25.1298L25.2049 10.8883H25.2966C25.3272 10.8883 25.3744 10.8632 25.3855 10.7488C25.3966 10.6344 25.4133 10.5759 25.4439 10.5257C25.4745 10.4754 25.5023 10.4448 25.5411 10.3834C25.5512 10.367 25.5577 10.3487 25.5601 10.3296C25.5626 10.3105 25.561 10.2911 25.5555 10.2727C25.55 10.2542 25.5407 10.2372 25.5282 10.2226C25.5156 10.208 25.5002 10.1963 25.4828 10.1882Z" fill="white"/>
<path d="M21.3335 9.97892C21.3126 9.95251 21.3 9.92048 21.2973 9.88688C21.2982 9.83104 21.3105 9.77596 21.3335 9.7251C21.3383 9.7136 21.3439 9.70243 21.3501 9.69164C21.3501 9.66651 21.3779 9.65258 21.3946 9.62469C21.4049 9.6095 21.4142 9.59366 21.4224 9.57727C21.4669 9.50196 21.4946 9.49359 21.4946 9.47127C21.4959 9.46867 21.4965 9.46578 21.4965 9.4629C21.4965 9.45999 21.4959 9.45714 21.4946 9.45454C21.478 9.43501 21.4335 9.40432 21.2918 9.37086L21.1862 9.34854H21.1528H21.1056C21.0521 9.34163 20.9979 9.34163 20.9444 9.34854C20.8332 9.34854 20.5692 9.42105 20.5331 9.57167C20.5331 9.63862 20.5914 9.72789 20.7415 9.87572L20.9277 10.0542L20.961 10.0849C20.7582 10.3025 20.5997 10.5814 20.4997 10.7042C20.4043 10.7044 20.3099 10.7233 20.2218 10.7599L20.1412 10.7962L19.8855 10.8604C19.8847 10.8695 19.8858 10.8787 19.8889 10.8873C19.8919 10.896 19.8967 10.9038 19.9031 10.9104C19.9094 10.917 19.917 10.9222 19.9255 10.9256C19.934 10.929 19.9431 10.9305 19.9522 10.9301H20.0773C20.1162 10.9301 20.2051 10.9134 20.2607 10.905C20.2827 10.9008 20.3054 10.9008 20.3274 10.905C20.3726 10.9102 20.4183 10.9102 20.4636 10.905C20.4974 10.9047 20.5306 10.8955 20.5598 10.8784C20.5891 10.8613 20.6134 10.8368 20.6303 10.8074C20.8348 10.6003 21.026 10.3804 21.2028 10.1491C21.2859 10.1408 21.3639 10.1055 21.4252 10.0487C21.3901 10.0321 21.3588 10.0083 21.3335 9.97892Z" fill="white"/>
<path d="M10.0861 27.3432C12.6025 27.3432 14.6424 25.2959 14.6424 22.7703C14.6424 20.2447 12.6025 18.1974 10.0861 18.1974C7.56972 18.1974 5.52979 20.2447 5.52979 22.7703C5.52979 25.2959 7.56972 27.3432 10.0861 27.3432Z" fill="#F15A29"/>
<path d="M9.49477 21.3255C9.60125 21.4073 9.72223 21.468 9.85128 21.5044C10.0674 21.5885 10.1079 21.5614 10.1214 21.5451C10.1349 21.5288 10.1214 21.499 10.1214 21.3987C10.1214 21.3716 10.1214 21.3635 10.1214 21.3364C10.1214 21.3093 10.1214 21.2767 10.1214 21.2442V21.2008C10.1301 21.1373 10.1522 21.0763 10.1862 21.0219C10.2167 20.992 10.2532 20.9688 10.2932 20.9538C10.3332 20.9389 10.3759 20.9325 10.4185 20.9352C10.4058 20.8774 10.3807 20.8231 10.3447 20.7763C10.3088 20.7294 10.2629 20.6911 10.2105 20.6641C10.1168 20.6321 10.0152 20.6321 9.9215 20.6641C9.49207 20.7346 9.27869 20.7725 9.24089 20.8674C9.18416 21.0138 9.39752 21.2415 9.49477 21.3255Z" fill="white"/>
<path d="M12.2902 24.3615C12.1215 24.0929 11.8771 23.8805 11.5879 23.7516C11.3156 23.6251 11.0209 23.5541 10.7209 23.5428C10.7624 23.3639 10.7948 23.183 10.8182 23.0007C10.8992 22.323 10.7777 22.2146 10.7371 22.1875L10.5859 22.098L10.3968 21.9896C10.2977 21.8315 10.2409 21.6503 10.2321 21.4637C10.2321 21.3851 10.2915 21.3715 10.3509 21.3607C10.4103 21.3498 10.4562 21.3607 10.4698 21.2767C10.4855 21.2305 10.4885 21.181 10.4785 21.1333C10.4685 21.0856 10.4459 21.0415 10.413 21.0056C10.3779 20.9731 10.2429 21.0273 10.2186 21.0842C10.158 21.2257 10.1493 21.3842 10.1943 21.5315C10.2267 21.6237 10.1943 21.6778 10.097 21.648C10.0403 21.6318 10.016 21.648 10.0133 21.7104C10.0094 21.7505 10.0031 21.7903 9.99439 21.8297L9.81613 21.7429L9.4245 21.2902C9.38338 21.2373 9.33304 21.1923 9.27595 21.1574C9.24836 21.1515 9.21981 21.1515 9.19222 21.1574C8.88033 21.1791 8.57655 21.2668 8.30093 21.4149H8.282C8.17209 21.4734 8.08677 21.5696 8.04164 21.686L7.9984 21.7646L7.84445 21.9571C7.80685 22.2773 7.8141 22.6012 7.86608 22.9194C7.9147 23.3938 7.92549 24.104 8.21719 24.7031C8.21719 24.7031 8.27662 24.8657 8.59801 24.8793C9.03085 24.8759 9.45702 24.772 9.84314 24.5757C10.0085 24.5006 10.1622 24.402 10.2996 24.2829C10.3641 24.3165 10.4309 24.3455 10.4995 24.3697C10.6573 24.4203 10.8228 24.4424 10.9883 24.4347C10.8957 24.4496 10.8051 24.4751 10.7182 24.5106C10.6007 24.5613 10.4921 24.6309 10.3968 24.7166C10.3968 24.619 10.3968 24.516 10.3266 24.4889C10.2564 24.4618 10.1943 24.4889 10.0781 24.5946C9.96197 24.7004 9.87556 24.5946 9.7162 24.6814C9.66263 24.7102 9.61117 24.7428 9.56225 24.779C9.36507 24.722 9.36507 24.882 9.36507 24.882C9.64866 24.882 11.38 24.9687 11.9688 24.8332C12.066 24.8115 12.2956 24.7573 12.3442 24.6055C12.3524 24.5633 12.3519 24.5198 12.3426 24.4778C12.3333 24.4358 12.3155 24.3962 12.2902 24.3615ZM10.2321 23.2528C10.2321 23.2989 9.87556 23.2528 9.63517 23.3721C9.34076 23.5239 9.41909 23.8383 9.1193 24.0931C8.95216 24.2263 8.7465 24.3014 8.53321 24.3073C8.5828 24.1225 8.59018 23.9288 8.55481 23.7408C8.48454 23.4105 8.29131 23.1196 8.01463 22.9275C8.19018 22.8516 8.22801 22.7839 8.23068 22.7378C8.23339 22.6917 8.23068 22.6239 8.10915 22.5372C7.98762 22.4504 8.09296 22.3582 8.00922 22.22C7.98664 22.1853 7.96231 22.1519 7.9363 22.1197C7.96061 22.0384 7.9363 21.995 7.91199 21.9733L7.94171 21.9571L8.03893 21.8785C8.08635 21.8357 8.13056 21.7895 8.17128 21.7402C8.19829 21.7104 8.20367 21.7185 8.23068 21.6968C8.28234 21.6548 8.32312 21.6009 8.34954 21.5396C8.47648 21.5396 8.61962 21.5233 8.75197 21.5071C8.88431 21.4908 9.05178 21.4637 9.18681 21.4393L9.81613 22.1739C9.85664 22.3339 9.87015 22.3826 9.87286 22.3881C9.87199 22.3962 9.87199 22.4044 9.87286 22.4125C9.87286 22.4287 9.88635 22.4477 9.89446 22.464C9.94017 22.5665 9.99821 22.663 10.0673 22.7513C10.1752 22.8963 10.2348 23.0718 10.2375 23.2528H10.2321Z" fill="white"/>
<path d="M5.11394 43.6551C7.63032 43.6551 9.67026 41.6077 9.67026 39.0822C9.67026 36.5566 7.63032 34.5092 5.11394 34.5092C2.59755 34.5092 0.557617 36.5566 0.557617 39.0822C0.557617 41.6077 2.59755 43.6551 5.11394 43.6551Z" fill="#F15A29"/>
<path d="M7.27255 39.1432C7.04813 38.5889 6.91634 38.4639 6.8629 38.1243C6.8355 37.8893 6.77181 37.6601 6.67411 37.445C6.65493 37.4022 6.63352 37.3602 6.61 37.3197C6.50669 37.1266 6.41407 37.0122 6.28941 36.7764C6.28941 36.7764 6.08637 36.8729 6.2716 37.0696C6.25772 37.1283 6.24936 37.1882 6.24665 37.2483C6.22527 37.4808 6.38915 37.5737 6.32503 37.7203C6.2609 37.8669 6.24308 37.974 6.30365 38.0778C6.34675 38.1332 6.40908 38.1701 6.47821 38.1813C6.55043 38.1889 6.62324 38.1889 6.69549 38.1813C6.69549 38.1813 6.66697 38.2135 6.51737 38.2742C6.43188 38.3243 6.3749 38.4029 6.32503 38.4138C5.7836 38.4782 5.61262 38.4818 5.43093 38.514C5.23135 38.5442 5.0355 38.5957 4.84676 38.6676C4.5812 38.6362 4.32046 38.5727 4.07023 38.4782C3.93708 38.4105 3.79745 38.3565 3.65345 38.3173C3.5751 38.3173 3.37563 38.2742 3.36849 38.2099C3.36562 38.1886 3.36562 38.1671 3.36849 38.1455C3.36849 38.0669 3.34357 38.0526 3.27589 38.0633C3.1441 38.0848 3.12629 38.0205 3.17259 37.917C3.2435 37.7488 3.25111 37.5608 3.19397 37.3877C3.16545 37.2948 3.01228 37.2268 2.97666 37.2626C2.93543 37.3004 2.9048 37.3482 2.88793 37.4016C2.87104 37.4548 2.86848 37.5119 2.88049 37.5664C2.88049 37.6559 2.94817 37.6593 3.01228 37.6772C3.03698 37.6808 3.06073 37.6895 3.08211 37.7024C3.10352 37.7153 3.12216 37.7323 3.13696 37.7525C3.14179 37.7712 3.14179 37.7908 3.13696 37.8095C3.05749 38.2093 2.87163 38.58 2.59909 38.8821C2.36043 39.2397 3.41836 40.777 3.83868 41.0271L3.90993 41.0665C4.07037 41.1449 4.23723 41.2095 4.40863 41.2596C4.57248 41.3024 4.70427 41.3309 4.83609 41.3524C5.01805 41.3748 5.20136 41.3843 5.38463 41.381C5.54494 41.381 7.34377 41.3597 7.63943 40.5551C7.73917 40.2907 7.58243 39.908 7.27255 39.1432ZM5.58767 40.1763C5.44166 40.0605 5.28119 39.9643 5.11034 39.8904C4.97401 39.8277 4.82566 39.7961 4.67578 39.7972C4.55483 39.8121 4.43812 39.8512 4.33281 39.9128C4.22747 39.9743 4.13571 40.0566 4.0631 40.1548H4.04529C4.03093 40.1405 4.01783 40.1248 4.00612 40.1083C3.85696 39.9122 3.77011 39.6755 3.75676 39.4291C3.75115 39.2942 3.73326 39.1602 3.70332 39.0287C3.90243 39.0612 4.10363 39.0791 4.30533 39.0822C4.50463 39.0936 4.70444 39.0936 4.90377 39.0822C5.42602 39.0259 5.93593 38.8858 6.41407 38.6676C6.46867 38.688 6.52693 38.6964 6.58505 38.6927H6.61356C6.53543 38.8474 6.4912 39.017 6.48384 39.1902C6.47645 39.3636 6.50611 39.5365 6.57081 39.6971C6.63798 39.8454 6.73788 39.976 6.8629 40.0798C6.13624 40.373 5.78003 40.305 5.58767 40.1763Z" fill="white"/>
<path d="M3.27598 37.534C3.2769 37.5508 3.2769 37.5676 3.27598 37.5841C3.27598 37.6199 3.27598 37.6484 3.27598 37.6949C3.27412 37.7186 3.27412 37.7427 3.27598 37.7665C3.27598 37.8845 3.24393 37.9131 3.27598 37.938C3.30804 37.9631 3.32942 37.9953 3.593 37.9203C3.74843 37.891 3.89703 37.8328 4.03113 37.7486C4.15582 37.6627 4.4301 37.4196 4.38734 37.2195C4.35529 37.1015 4.10952 37.0371 3.61438 36.9048C3.5016 36.857 3.37583 36.8494 3.25817 36.8835C3.19289 36.9107 3.13444 36.9518 3.08699 37.0044C3.03955 37.057 3.00435 37.1194 2.98389 37.1874C3.0344 37.1888 3.08404 37.2011 3.12948 37.2232C3.17494 37.2453 3.21516 37.2769 3.24747 37.3161C3.27286 37.3857 3.28259 37.4601 3.27598 37.534Z" fill="white"/>
<path d="M10.0861 60.2965C12.6025 60.2965 14.6424 58.2491 14.6424 55.7235C14.6424 53.198 12.6025 51.1506 10.0861 51.1506C7.56972 51.1506 5.52979 53.198 5.52979 55.7235C5.52979 58.2491 7.56972 60.2965 10.0861 60.2965Z" fill="#F15A29"/>
<path d="M10.0452 58.8057L9.75163 58.6907C9.77217 58.3488 9.79567 58.0011 9.81914 57.6533V57.5532H9.8808C10.101 57.5269 10.2155 57.5003 10.2448 57.4385C10.3124 57.291 10.1303 57.0731 10.0481 56.9934L9.99528 56.9464C9.96939 56.9273 9.94187 56.9106 9.91311 56.8963H9.89842L9.86907 56.8815L9.83676 56.8638L9.73401 56.8166C9.674 56.7861 9.60961 56.7654 9.54318 56.7547H9.49914C9.48448 56.7724 9.49914 56.7961 9.49914 56.8873C9.49914 56.9108 9.49914 56.9198 9.49914 56.9433C9.49914 56.9668 9.49914 56.9992 9.49914 57.0258C9.48548 57.0958 9.45964 57.1626 9.42282 57.2233C9.39366 57.2496 9.35904 57.2689 9.32147 57.2801C9.28389 57.2916 9.24431 57.2941 9.20557 57.288C9.21315 57.3425 9.23261 57.3943 9.26254 57.4401C9.29251 57.486 9.3322 57.5246 9.37878 57.5532C9.41761 57.5742 9.46093 57.5853 9.50502 57.5856C9.49613 57.723 9.49418 57.8606 9.49914 57.9983C9.5232 58.2327 9.56841 58.4644 9.63419 58.6907C9.59015 58.7615 9.57253 58.8409 9.60484 58.882C9.63325 58.905 9.66689 58.9206 9.70277 58.9274C9.73864 58.9341 9.7756 58.9316 9.81033 58.9204C9.84038 58.9145 9.8713 58.9145 9.90134 58.9204C9.95071 58.9316 10.0007 58.9394 10.0511 58.9441H10.2272C10.2367 58.9444 10.2463 58.943 10.2551 58.9394C10.2639 58.9358 10.2719 58.9302 10.2783 58.9232C10.2848 58.9162 10.2896 58.9078 10.2924 58.8985C10.2953 58.8896 10.296 58.8798 10.2947 58.8703L10.0452 58.8057Z" fill="white"/>
<path d="M12.1177 54.5038L12.0913 54.4624V54.4447C12.0721 54.4243 12.0504 54.4067 12.0267 54.3919C11.9697 54.3544 11.9098 54.3219 11.8476 54.2945C11.434 54.1104 10.9783 54.0433 10.5294 54.1001C10.3439 54.1261 10.1618 54.1725 9.98632 54.2386C9.88366 54.1155 9.75265 54.0195 9.60466 53.9585L9.20538 53.8055C9.31192 53.813 9.41885 53.813 9.52538 53.8055C9.6734 53.7949 9.81996 53.7691 9.96282 53.7288C9.94813 53.8407 9.9452 53.9644 10.0127 54.0234C10.0803 54.0825 10.139 54.0735 10.2916 54.0058C10.4443 53.9381 10.4913 54.0707 10.6762 54.0469C10.7368 54.036 10.7966 54.0212 10.8553 54.0027C11.0285 54.1236 11.0843 53.9703 11.0843 53.9703L10.0098 53.5873C9.62872 53.3335 9.20023 53.1601 8.75033 53.0776C8.60753 53.0708 8.46442 53.0829 8.32466 53.1131C8.19842 53.1366 8.13676 53.1601 8.0986 53.2132C8.0751 53.2504 8.06027 53.2927 8.0552 53.3366C8.0501 53.3803 8.05492 53.4247 8.06925 53.4667C8.13035 53.7238 8.24692 53.9647 8.41076 54.1717C8.57458 54.379 8.78169 54.5477 9.01751 54.6658C9.13829 54.7217 9.26412 54.7662 9.39329 54.7984C9.21316 55.0054 9.0933 55.2583 9.04686 55.5291C8.98459 55.7465 9.00446 55.9795 9.10264 56.1832C9.15173 56.2565 9.21336 56.3203 9.28466 56.3717V56.3894C9.34662 56.5295 9.37862 56.6812 9.3786 56.8345C9.3786 56.905 9.31989 56.9139 9.26704 56.9198C9.21419 56.9257 9.17015 56.9198 9.15253 56.9906C9.13765 57.03 9.13305 57.0728 9.13921 57.1145C9.1454 57.1562 9.1621 57.1956 9.18777 57.2292C9.22007 57.2645 9.34632 57.2292 9.36979 57.1702C9.43265 57.0457 9.44929 56.9025 9.41676 56.7665C9.41676 56.7195 9.41676 56.6842 9.41676 56.6694C9.41676 56.6546 9.44906 56.6694 9.49015 56.6694H9.51072C9.57531 56.6842 9.6487 56.6988 9.69567 56.7136C9.75504 56.7315 9.81007 56.7615 9.85712 56.802V56.7785C9.85712 56.7578 9.85712 56.7371 9.85712 56.7136C9.85712 56.6901 9.85712 56.6753 9.85712 56.6546C9.871 56.6241 9.88276 56.5925 9.89235 56.5603C9.95178 56.3032 9.94267 56.0349 9.86593 55.7826C9.83251 55.6872 9.81082 55.5884 9.80134 55.488C9.79727 55.4049 9.80419 55.3215 9.82191 55.2404C9.999 55.2941 10.1879 55.2941 10.365 55.2404C10.6116 55.152 10.6586 54.9987 10.9786 54.8249C11.1255 54.7312 11.2949 54.6795 11.4689 54.6747C11.4835 54.7072 11.2164 54.8014 11.0197 55.0222C10.8171 55.2709 10.7126 55.5853 10.7261 55.9062C10.5764 55.8296 10.4913 55.8326 10.4325 55.8651C10.3738 55.8973 10.3474 55.9504 10.3474 56.092C10.3474 56.2333 10.2124 56.2184 10.1566 56.3866C10.1372 56.44 10.1224 56.4954 10.1125 56.5516C9.93347 56.6193 10.0362 56.743 10.0362 56.7461C10.3056 56.5374 10.5633 56.3141 10.8083 56.0772C10.9873 55.9625 11.1589 55.8366 11.3221 55.7C11.4477 55.5982 11.5655 55.4869 11.6744 55.3671C12.1559 54.8277 12.1412 54.5332 12.1177 54.5038Z" fill="white"/>
<path d="M22.7233 73.1882C25.2397 73.1882 27.2796 71.1408 27.2796 68.6152C27.2796 66.0897 25.2397 64.0423 22.7233 64.0423C20.2069 64.0423 18.167 66.0897 18.167 68.6152C18.167 71.1408 20.2069 73.1882 22.7233 73.1882Z" fill="#F15A29"/>
<path d="M24.4847 69.0189C24.4835 68.9535 24.4987 68.8886 24.5287 68.8304L24.5551 68.7803C24.5904 68.7243 24.5757 68.7006 24.5199 68.6771C24.4113 68.6359 24.426 68.5828 24.5052 68.521C24.6307 68.4253 24.7172 68.2871 24.7489 68.1321C24.7636 68.0731 24.6814 67.9435 24.6315 67.9522C24.5849 67.9645 24.542 67.9883 24.5067 68.0213C24.4714 68.054 24.4447 68.0952 24.4289 68.1408C24.3966 68.2115 24.4289 68.2409 24.4818 68.2792C24.5346 68.3176 24.5728 68.3766 24.5199 68.4356C24.4261 68.5512 24.3141 68.6508 24.1882 68.7302C23.9678 68.7196 23.7481 68.7632 23.5482 68.857C23.3985 68.954 23.3955 69.0659 23.2076 69.4727C23.1365 69.6277 23.0478 69.774 22.9434 69.9089L22.0069 68.8981L20.5948 67.6694L19.7875 66.8533C19.7875 66.8533 19.6671 66.9742 19.8579 67.083C19.8678 67.1471 19.8825 67.21 19.9019 67.2715C19.9607 67.4573 20.1075 67.4898 20.1104 67.6165C20.1104 67.7902 20.1544 67.8462 20.2219 67.8876C20.2895 67.9287 20.4216 67.8876 20.5155 67.8227C20.4799 68.1343 20.5621 68.4479 20.7458 68.7017C20.9296 68.9554 21.2015 69.1306 21.5078 69.1927L21.6047 69.2282C21.6352 69.4 21.6814 69.5687 21.7427 69.7321C21.8478 70.1441 22.1021 70.5025 22.4561 70.7367C22.7937 70.9107 23.3573 70.9694 23.5687 70.6659C23.6118 70.5825 23.6372 70.491 23.6432 70.397C23.6493 70.3033 23.6359 70.2093 23.604 70.1209C23.6958 69.9354 23.8271 69.7726 23.9885 69.6436C24.0899 69.5653 24.1808 69.4744 24.2586 69.3726C24.3418 69.5018 24.434 69.6249 24.5346 69.7407C24.6256 69.8468 24.7137 69.9382 24.7988 70.0356C24.5258 70.2712 24.3173 70.5747 24.1588 70.7101C24.0984 70.7244 24.0395 70.7442 23.9827 70.7691L23.8946 70.8075L23.6304 70.8693C23.6286 70.8794 23.6291 70.8897 23.6319 70.8995C23.6346 70.9096 23.6396 70.9185 23.6464 70.9264C23.6532 70.9339 23.6616 70.9398 23.671 70.9437C23.6804 70.9476 23.6906 70.9496 23.7008 70.9487H23.8388C23.9069 70.9437 23.9746 70.9336 24.0414 70.9194C24.0656 70.9149 24.0905 70.9149 24.1148 70.9194C24.1639 70.9306 24.2141 70.9364 24.2645 70.937C24.2857 70.9395 24.3071 70.9373 24.3274 70.9306C24.3476 70.9241 24.3662 70.9132 24.3819 70.8987C24.3949 70.8768 24.4017 70.8519 24.4017 70.8265C24.4017 70.8013 24.3949 70.7761 24.3819 70.7543C24.5783 70.6544 24.7584 70.5255 24.9163 70.3713C24.9832 70.3025 25.046 70.2297 25.1041 70.1534C25.098 69.9284 25.0386 69.7083 24.9309 69.511C24.8232 69.3138 24.6702 69.1451 24.4847 69.0189Z" fill="white"/>
<path d="M25.2363 67.9435C25.173 67.8621 25.0839 67.8051 24.9838 67.7816C24.923 67.7729 24.8611 67.7782 24.8026 67.7972C24.7442 67.816 24.6907 67.8479 24.6462 67.8904C24.6842 67.9122 24.7169 67.9424 24.7418 67.9788C24.7667 68.0149 24.7832 68.0563 24.7901 68.0997C24.7876 68.1654 24.7706 68.23 24.7402 68.2882L24.7196 68.3293L24.6638 68.406C24.6492 68.4298 24.6462 68.4384 24.6315 68.4592C24.5787 68.5504 24.5464 68.5562 24.5464 68.5828C24.5464 68.6094 24.564 68.6505 24.793 68.7067C24.923 68.7526 25.0604 68.7736 25.1981 68.7686C25.3302 68.7686 25.6414 68.6919 25.6855 68.5151C25.7119 68.4149 25.5534 68.2558 25.2363 67.9435Z" fill="white"/>
<path d="M69.9592 60.2965C72.4755 60.2965 74.5155 58.2491 74.5155 55.7235C74.5155 53.198 72.4755 51.1506 69.9592 51.1506C67.4428 51.1506 65.4028 53.198 65.4028 55.7235C65.4028 58.2491 67.4428 60.2965 69.9592 60.2965Z" fill="#F15A29"/>
<path d="M71.5511 54.8747C71.5862 54.8664 71.623 54.8664 71.6582 54.8747C71.7382 54.8806 71.8131 54.9159 71.8695 54.9732C71.9628 55.0549 72.0361 55.157 72.0835 55.2717C72.1482 55.4169 72.1914 55.5711 72.2115 55.7286C72.2352 55.9376 72.1758 55.9854 72.1936 56.2512C72.1936 56.2839 72.1936 56.3586 72.1936 56.475C72.1936 56.5916 72.1936 56.6303 72.1936 56.6781C72.2045 56.654 72.2137 56.6291 72.2204 56.6034C72.2257 56.5628 72.2257 56.5217 72.2204 56.4811C72.2204 56.3348 72.5178 56.066 72.5178 55.7733C72.5292 55.6441 72.4899 55.5154 72.4077 55.4153C72.3007 55.3196 72.1878 55.23 72.0777 55.1374C71.9826 55.0247 71.8962 54.905 71.8187 54.7791C71.7649 54.677 71.727 54.5673 71.7058 54.4537C71.7058 54.3941 71.7474 54.3762 71.792 54.3642C71.8366 54.3522 71.8753 54.3642 71.8812 54.2895C71.889 54.2526 71.8873 54.2145 71.8764 54.1784C71.8653 54.1426 71.8455 54.1099 71.8187 54.0836C71.7861 54.0595 71.6819 54.1135 71.6701 54.1611C71.6283 54.2758 71.6283 54.4017 71.6701 54.5164C71.7028 54.588 71.6908 54.63 71.6016 54.6179C71.5938 54.614 71.5851 54.6121 71.5762 54.6121C71.5676 54.6121 71.5589 54.614 71.5511 54.6179C71.5361 54.6179 71.5511 54.6568 71.5511 54.6658C71.5612 54.7351 71.5612 54.8054 71.5511 54.8747Z" fill="white"/>
<path d="M72.3069 57.4486C72.2355 57.4279 72.1789 57.4248 72.1432 57.3741C72.1301 57.3501 72.1215 57.3238 72.1184 57.2966C72.1154 57.2695 72.1179 57.2421 72.1254 57.2158C72.1494 57.0605 72.1653 56.9039 72.1731 56.7469C72.1731 56.6842 72.1731 56.5469 72.1731 56.2722C72.1686 56.2156 72.1686 56.1586 72.1731 56.1021C72.194 55.9829 72.1998 55.8615 72.1909 55.7409C72.1747 55.5778 72.1324 55.4186 72.066 55.2689C72.0237 55.1472 71.9434 55.0426 71.8369 54.9704C71.8034 54.9436 71.7644 54.9245 71.7229 54.9142C71.6813 54.9038 71.6379 54.9027 71.5958 54.9108C71.462 54.9645 71.4561 55.2093 71.4561 55.2482C71.4545 55.3585 71.4834 55.4667 71.5395 55.5616C71.569 55.6063 71.5988 55.6542 71.6256 55.702C71.7045 55.8329 71.7608 55.9762 71.7923 56.1258C71.8249 56.2931 71.7923 56.2604 71.8458 56.6722C71.8815 56.9948 71.8993 57.1559 71.9083 57.1889C71.9297 57.2583 71.937 57.3316 71.9292 57.4038C71.9292 57.4933 71.8815 57.5322 71.9024 57.5652C71.923 57.5979 72.0303 57.5859 72.1611 57.58C72.3108 57.5879 72.4596 57.6038 72.6073 57.6279C72.6073 57.6069 72.4735 57.4964 72.3069 57.4486Z" fill="white"/>
<path d="M71.7831 56.508C71.7784 56.2719 71.7291 56.0388 71.6373 55.8212C71.6047 55.7616 71.5721 55.7017 71.5364 55.6449C71.5476 55.7714 71.5665 55.897 71.5927 56.0212C71.5975 56.1127 71.5691 56.2031 71.5125 56.275C71.447 56.3197 71.3684 56.3407 71.2895 56.3348C71.139 56.3206 70.987 56.3317 70.8401 56.3676C70.7799 56.3832 70.7211 56.4042 70.6648 56.4302C70.5366 56.5024 70.4284 56.6048 70.3493 56.7287C70.124 56.9794 69.8102 57.1316 69.4746 57.1528C69.3706 57.1528 69.3528 57.1528 69.067 57.1528C68.933 57.1456 68.7986 57.1503 68.6656 57.1677C68.3679 57.2334 68.2372 57.514 68.1391 57.4665C68.0853 57.4365 68.1093 57.3498 68.0139 57.2902C67.9978 57.2773 67.9791 57.2681 67.959 57.2631C67.9392 57.2578 67.9183 57.2569 67.898 57.2603C67.8695 57.2678 67.8445 57.2846 67.8266 57.3081C67.7285 57.4217 67.7463 57.4902 67.6839 57.5409C67.6215 57.5918 67.4815 57.5409 67.2853 57.6066C67.2583 57.6066 67.2287 57.6307 67.2256 57.6514C67.2226 57.6724 67.3447 57.7202 67.3893 57.7292C67.5339 57.7605 67.6833 57.7647 67.8297 57.7409C68.4162 57.6587 69.0074 57.6119 69.5997 57.6007C70.1946 57.6007 70.1678 57.7082 70.5547 57.6665C71.001 57.6086 71.4241 57.4323 71.7803 57.1559C71.8007 57.1531 71.8194 57.1436 71.8339 57.1291C71.8277 56.9229 71.801 56.7139 71.7831 56.508Z" fill="white"/>
<path d="M71.1582 54.391C71.2497 54.4475 71.3503 54.487 71.4557 54.5077C71.6313 54.5553 71.6608 54.5315 71.67 54.5077C71.6789 54.4836 71.67 54.4719 71.67 54.391V54.3524C71.67 54.3225 71.67 54.3046 71.67 54.2808C71.6692 54.2688 71.6692 54.2567 71.67 54.245C71.6672 54.1946 71.6764 54.1446 71.6968 54.0987C71.7182 54.0718 71.7456 54.0503 71.7762 54.0355C71.8072 54.0206 71.8409 54.0125 71.8752 54.012C71.8624 53.9669 71.8395 53.9255 71.8086 53.8903C71.7779 53.8553 71.7394 53.8273 71.6968 53.8088C71.6215 53.7825 71.5398 53.7825 71.4646 53.8088C71.1315 53.8987 70.9617 53.9434 70.9411 54.0209C70.8876 54.1672 71.0749 54.3314 71.1582 54.391Z" fill="white"/>
<path d="M40.3429 77.4103C42.8593 77.4103 44.8993 75.363 44.8993 72.8374C44.8993 70.3118 42.8593 68.2645 40.3429 68.2645C37.8266 68.2645 35.7866 70.3118 35.7866 72.8374C35.7866 75.363 37.8266 77.4103 40.3429 77.4103Z" fill="#F15A29"/>
<path d="M43.2642 71.5723C43.2405 71.5432 43.2093 71.5214 43.1739 71.5091C43.156 71.5016 43.1368 71.4976 43.1176 71.4976C43.0983 71.4976 43.0791 71.5016 43.0615 71.5091C42.7379 71.562 42.4087 71.5695 42.0831 71.5312C41.8668 71.5066 41.9407 71.4845 41.5817 71.4213C41.3603 71.3675 41.1323 71.3463 40.9049 71.358C40.683 71.3855 40.6309 71.4543 40.5433 71.402C40.4555 71.3496 40.431 71.2341 40.3898 70.9812C40.3845 70.968 40.3845 70.9532 40.3898 70.9401C40.3898 70.9071 40.4447 70.8931 40.4831 70.8822C40.5213 70.8712 40.5734 70.8822 40.579 70.8024C40.5882 70.7619 40.5863 70.7196 40.5737 70.6799C40.5612 70.6404 40.5386 70.6049 40.5077 70.5769C40.4748 70.5523 40.3624 70.61 40.346 70.6623C40.3036 70.7901 40.3095 70.9289 40.3624 71.0528C40.3953 71.1297 40.3845 71.1765 40.2858 71.1628C40.2364 71.1628 40.2144 71.1628 40.2172 71.2232C40.2211 71.2791 40.2211 71.3351 40.2172 71.391H40.1762C40.0031 71.3743 39.8286 71.3743 39.6555 71.391C39.5828 71.3994 39.5103 71.4123 39.439 71.4294C39.2143 71.4736 39.0718 71.5091 39.0197 71.5312C38.5403 71.6798 37.9047 71.4873 37.7319 71.5863C37.6909 71.6132 37.6438 71.6291 37.5951 71.633C37.5293 71.633 37.488 71.633 37.4827 71.633C37.4771 71.633 37.5513 71.7016 37.6388 71.7128C37.6659 71.7181 37.694 71.7181 37.721 71.7128C37.7704 71.7128 37.784 71.6798 37.8225 71.6689C37.859 71.6574 37.8983 71.6574 37.9348 71.6689C38.1615 71.7315 38.3923 71.7794 38.6253 71.8118C38.6833 71.821 38.7418 71.8258 38.8006 71.8255C39.0063 71.7936 39.2148 71.7836 39.4225 71.7953C39.5421 71.7978 39.6572 71.8415 39.7486 71.919C39.7949 71.9657 39.8323 72.0208 39.8582 72.0812C39.9184 72.2043 39.9549 72.3378 39.9652 72.4746C39.9725 72.615 39.9502 72.7557 39.8994 72.8869C39.8994 72.8869 39.8746 72.9392 39.8501 72.9751C39.6993 73.1949 39.3542 73.1454 38.8773 73.3077C38.5595 73.4151 38.4856 73.5167 38.4608 73.5525C38.3859 73.6829 38.3594 73.8362 38.387 73.9842C38.4193 74.3649 38.4742 74.7432 38.5512 75.1172C38.45 75.1723 38.3457 75.2246 38.2417 75.2767L37.987 75.3592H37.8635C37.8635 75.3592 37.8417 75.494 37.9541 75.494C38.0143 75.494 38.0059 75.4775 38.0059 75.4775C38.0742 75.487 38.1428 75.4924 38.2116 75.494C38.2964 75.494 38.4608 75.461 38.5567 75.461C38.6526 75.461 38.6116 75.494 38.7156 75.494C38.746 75.4954 38.7758 75.4868 38.8006 75.4694C38.8201 75.4518 38.8352 75.43 38.8452 75.4056C38.8553 75.3816 38.8597 75.3553 38.858 75.329C38.858 75.296 38.8335 75.2355 38.702 75.1449C38.8438 74.9594 38.9328 74.739 38.9595 74.5068C38.9824 74.3006 38.9542 74.0919 38.8773 73.8991C39.0797 73.9595 39.2915 73.983 39.502 73.9677C39.662 73.9503 39.8206 73.9209 39.9761 73.8798L40.1185 73.8412H40.3898L40.5297 73.8798C40.6852 73.9207 40.8438 73.95 41.0036 73.9677C41.2151 73.983 41.4278 73.9595 41.631 73.8991C41.5544 74.0919 41.5262 74.3006 41.5488 74.5068C41.5758 74.739 41.6647 74.9594 41.8063 75.1449C41.6751 75.2355 41.6502 75.296 41.6502 75.329C41.6486 75.355 41.6528 75.381 41.6622 75.4053C41.6717 75.4294 41.6862 75.4512 41.7052 75.4694C41.73 75.4868 41.7598 75.4954 41.7902 75.494C41.8941 75.494 41.8557 75.461 41.9516 75.461C42.0477 75.461 42.2091 75.494 42.2969 75.494C42.3647 75.4926 42.4324 75.487 42.4996 75.4775C42.4996 75.4775 42.4996 75.494 42.5545 75.494C42.6668 75.494 42.6448 75.3592 42.6448 75.3592H42.5216L42.264 75.2851L41.9544 75.1256C42.0277 74.7485 42.079 74.3674 42.1079 73.9842C42.1347 73.837 42.1085 73.6851 42.0338 73.5553C41.982 73.4809 41.8997 73.4095 41.6174 73.3105C41.0994 73.1317 40.894 73.2059 40.7953 73.0355C40.7658 72.965 40.7505 72.8892 40.7505 72.8128C40.7505 72.7361 40.7658 72.6606 40.7953 72.5901C40.8611 72.3646 40.9818 72.2737 40.9843 72.0591C40.9849 71.992 40.9748 71.9251 40.9542 71.8613C41.0036 71.8613 41.083 71.8613 41.1764 71.8613C41.3595 71.8471 41.5415 71.8213 41.7216 71.7841C41.8253 71.7738 41.9301 71.7738 42.0338 71.7841C42.0868 71.7886 42.14 71.7886 42.193 71.7841C42.4366 71.7486 42.4831 71.7676 42.6696 71.7265C42.8558 71.6854 42.9436 71.6605 42.9436 71.6605C42.9991 71.6235 43.0635 71.6017 43.1298 71.5972C43.2232 71.5972 43.2915 71.6689 43.3079 71.6495C43.3244 71.6302 43.2751 71.5888 43.2642 71.5723Z" fill="white"/>
<path d="M39.7351 70.9373C39.8349 70.9997 39.9455 71.0425 40.0612 71.0637C40.2555 71.1188 40.2859 71.0911 40.294 71.0637C40.3023 71.0363 40.294 71.0254 40.294 70.9345V70.8961C40.294 70.8631 40.294 70.8438 40.294 70.8161V70.7778C40.2959 70.721 40.311 70.6656 40.3377 70.6155C40.3617 70.5867 40.3912 70.5635 40.425 70.5473C40.4584 70.5313 40.4952 70.5227 40.5323 70.5221C40.5172 70.472 40.491 70.4261 40.4559 70.3878C40.4208 70.3492 40.3779 70.319 40.3296 70.2991C40.2471 70.2698 40.1571 70.2698 40.0749 70.2991C39.7078 70.3956 39.5268 70.4449 39.502 70.5302C39.439 70.6844 39.6445 70.874 39.7351 70.9373Z" fill="white"/>
<path d="M57.9421 14.1365C60.4584 14.1365 62.4984 12.0891 62.4984 9.56356C62.4984 7.038 60.4584 4.99063 57.9421 4.99063C55.4257 4.99063 53.3857 7.038 53.3857 9.56356C53.3857 12.0891 55.4257 14.1365 57.9421 14.1365Z" fill="#F15A29"/>
<path d="M60.6384 8.40056C60.5947 8.37228 60.5947 8.344 60.554 8.32827C60.5205 8.31602 60.484 8.31602 60.4506 8.32827C60.1548 8.38037 59.8532 8.38884 59.555 8.35342C59.3545 8.33144 59.4234 8.30942 59.0914 8.25285C58.8865 8.20358 58.6758 8.1835 58.4651 8.19315C58.2585 8.21827 58.2117 8.28427 58.13 8.23399C58.0486 8.18372 58.0269 8.07685 57.9828 7.85371C57.9781 7.84051 57.9781 7.82605 57.9828 7.81284C57.9828 7.78142 58.0361 7.772 58.0676 7.76257C58.0988 7.75314 58.152 7.76257 58.1584 7.68712C58.1665 7.6498 58.1648 7.61096 58.1531 7.57454C58.1417 7.53811 58.1208 7.50538 58.0927 7.4797C58.0645 7.45455 57.958 7.51112 57.9455 7.55826C57.9014 7.67366 57.9014 7.80117 57.9455 7.91655C57.9767 7.98884 57.9672 8.03285 57.8763 8.01712C57.7858 8.00143 57.8108 8.01712 57.8108 8.07372C57.8153 8.12494 57.8153 8.17648 57.8108 8.2277H57.7668C57.6076 8.21198 57.4471 8.21198 57.2876 8.2277C57.2202 8.23447 57.1533 8.24602 57.0872 8.26228C56.8993 8.30942 56.7711 8.35342 56.7366 8.35342C56.295 8.48858 55.7063 8.31258 55.5466 8.4037C55.5098 8.42969 55.4663 8.44494 55.4214 8.4477C55.3618 8.4477 55.3244 8.4477 55.3211 8.4477C55.318 8.4477 55.3838 8.51057 55.4621 8.52C55.4878 8.52615 55.5145 8.52615 55.5405 8.52C55.5728 8.50889 55.604 8.49521 55.6344 8.47915C55.6681 8.46927 55.7038 8.46927 55.7375 8.47915C55.9438 8.53516 56.1529 8.57922 56.3639 8.61114C56.4171 8.61489 56.4706 8.61489 56.5236 8.61114C56.7143 8.58238 56.9074 8.57293 57.0998 8.58286C57.214 8.58414 57.3241 8.62401 57.4131 8.69599C57.4552 8.73983 57.4892 8.79092 57.5131 8.84687C57.5708 8.96017 57.604 9.08441 57.6104 9.21143C57.6168 9.3489 57.5901 9.48593 57.5321 9.61059C57.4287 9.84002 57.2188 9.8746 56.94 10.0475C56.6075 10.2909 56.3173 10.5883 56.0821 10.9275C55.769 11.3015 55.769 11.3863 55.5903 11.4743C55.4496 11.5308 55.3278 11.6268 55.2397 11.7509C55.2241 11.7824 55.1834 11.8609 55.2146 11.9175C55.2285 11.9422 55.2508 11.9612 55.2773 11.9709C55.3743 12.0086 55.4839 12.0212 55.5215 11.8766C55.5591 11.7321 55.672 11.6598 55.8911 11.4963C55.9391 11.4577 55.9892 11.422 56.0414 11.3895C56.217 11.2803 56.4001 11.1836 56.5894 11.1003C56.9464 10.9275 56.9244 10.8363 57.2628 10.6697C57.4139 10.5947 57.5722 10.5357 57.7356 10.4937H57.9736L58.1018 10.5283C58.2462 10.5648 58.3926 10.5921 58.5403 10.61C58.7349 10.6234 58.93 10.6011 59.1165 10.544C59.0476 10.723 59.022 10.9158 59.0415 11.1066C59.0663 11.3206 59.1485 11.5237 59.2793 11.6943C59.1572 11.7792 59.1385 11.8358 59.1354 11.8672C59.134 11.8913 59.1379 11.9154 59.1471 11.9378C59.1563 11.9601 59.1706 11.98 59.1887 11.9961C59.2107 12.0138 59.2386 12.0227 59.2667 12.0212C59.3607 12.0212 59.3264 11.9898 59.4139 11.9898C59.5017 11.9898 59.652 12.0212 59.7272 12.0212C59.7899 12.0196 59.8529 12.0143 59.9151 12.0055C59.9151 12.0055 59.9151 12.0212 59.9653 12.0212C60.0152 12.0212 60.0467 11.8955 60.0467 11.8955H59.9338L59.7021 11.8106L59.4172 11.6661C59.4892 11.3206 59.5405 10.9711 59.5706 10.6195C59.5906 10.4885 59.5664 10.3547 59.5017 10.2392C59.4549 10.17 59.3796 10.104 59.1165 10.0129C58.6407 9.84945 58.4528 9.91545 58.3619 9.76773C58.3346 9.70252 58.3207 9.63255 58.3207 9.56188C58.3207 9.49119 58.3346 9.42122 58.3619 9.35601C58.4244 9.14859 58.5342 9.06371 58.5373 8.86572C58.5431 8.79931 58.5378 8.73239 58.5216 8.66771C58.5685 8.66771 58.6407 8.66771 58.7251 8.66771C58.889 8.65576 59.0524 8.63372 59.2135 8.60171C59.3069 8.58691 59.4011 8.58062 59.4956 8.58286C59.5435 8.58616 59.5915 8.58616 59.6394 8.58286C59.868 8.54828 59.9087 8.58286 60.0809 8.52942C60.2532 8.47599 60.3315 8.46656 60.3315 8.46656C60.4193 8.43828 60.4506 8.42258 60.5007 8.43201C60.5509 8.44144 60.5883 8.47915 60.6635 8.48228C60.7034 8.48805 60.7438 8.47789 60.7761 8.454C60.7761 8.454 60.7042 8.4477 60.6384 8.40056Z" fill="white"/>
<path d="M57.3815 7.81621C57.4777 7.87407 57.5839 7.91351 57.6946 7.93251C57.8732 7.98281 57.9045 7.95766 57.9106 7.93251C57.917 7.90736 57.9106 7.8948 57.9106 7.81308C57.9123 7.79635 57.9123 7.77954 57.9106 7.76281C57.9092 7.73872 57.9092 7.71458 57.9106 7.69052V7.6685C57.9137 7.6159 57.9273 7.56451 57.9513 7.51765C57.9728 7.49065 57.9998 7.46895 58.0307 7.45423C58.0617 7.43951 58.0957 7.43218 58.13 7.4328C58.1169 7.38597 58.0929 7.34288 58.0603 7.30688C58.0277 7.2709 57.9872 7.24298 57.9421 7.22536C57.866 7.19925 57.7832 7.19925 57.7071 7.22536C57.369 7.3165 57.1998 7.36051 57.178 7.43907C57.1089 7.58994 57.2971 7.75651 57.3815 7.81621Z" fill="white"/>
<path d="M40.3429 9.14586C42.8593 9.14586 44.8993 7.09849 44.8993 4.57293C44.8993 2.04737 42.8593 0 40.3429 0C37.8266 0 35.7866 2.04737 35.7866 4.57293C35.7866 7.09849 37.8266 9.14586 40.3429 9.14586Z" fill="#F15A29"/>
<path d="M43.3308 6.66167L43.1053 6.68147L42.8489 6.57399L42.4176 6.39295C42.5116 6.05607 42.5868 5.71422 42.6429 5.36897C42.6928 5.03527 42.7248 4.69914 42.7387 4.36199C42.5492 3.71435 42.1531 3.14699 41.6115 2.74685C41.3138 2.53285 40.9779 2.37824 40.6222 2.29144C40.242 2.17442 39.8356 2.17442 39.4554 2.29144C39.0947 2.42156 38.61 2.73271 38.5676 3.07498C38.5511 3.27534 38.5453 3.47646 38.5509 3.67747C38.5509 3.70858 38.5509 3.73687 38.5509 3.7595C38.5525 3.79153 38.5525 3.82365 38.5509 3.85568C38.4854 3.97201 38.4079 4.08106 38.3195 4.18096C38.2604 4.25168 38.1899 4.20359 38.1336 4.16115C38.0773 4.11874 38.0436 4.0763 37.9675 4.12439C37.917 4.14873 37.8741 4.1858 37.8426 4.23193C37.8108 4.27807 37.7916 4.33167 37.7871 4.38745C37.7871 4.44402 37.9421 4.51757 38.0095 4.49211C38.1801 4.4311 38.3231 4.31063 38.4126 4.15268C38.4689 4.04802 38.5283 4.02256 38.593 4.15268C38.6005 4.17103 38.6133 4.18675 38.6298 4.19794L38.6746 4.27714C38.7557 4.40527 38.8157 4.54569 38.8522 4.69295C38.8918 4.86064 38.8996 5.03435 38.8748 5.20492C38.8748 5.31291 38.8402 5.41801 38.7761 5.50477C38.7159 5.57233 38.6342 5.61723 38.545 5.63206C38.5369 5.9236 38.5445 6.21536 38.5676 6.50609C38.5029 6.71541 38.6072 6.84552 38.8494 6.78896C38.8868 6.78191 38.9249 6.78191 38.9623 6.78896C39.0328 6.78896 39.0356 6.82007 39.0891 6.82007H39.3567C39.369 6.82113 39.3813 6.8194 39.3924 6.81495C39.4038 6.8105 39.4139 6.80348 39.4222 6.79444C39.4303 6.7854 39.4364 6.77461 39.4398 6.76286C39.4429 6.75111 39.4437 6.73874 39.4415 6.72671L39.1312 6.65034L38.8101 6.50609C38.8383 6.35899 38.8608 6.22322 38.8776 6.12422C38.9088 5.9347 38.9651 5.60375 39.0075 5.21907C39.0075 5.21907 39.1284 4.11024 39.306 3.91225L39.3567 3.85851C39.3715 3.84181 39.3846 3.82382 39.3963 3.80477C39.4802 3.69448 39.5493 3.57371 39.602 3.44552C39.6528 3.32388 39.7428 3.21357 39.8359 3.2051C40.0079 3.18811 40.0277 3.57847 40.3404 3.79343C40.6052 3.97447 40.7914 3.85283 41.2647 3.96317C41.5577 4.03389 41.8342 4.16065 42.0792 4.33654C42.002 4.50067 41.9527 4.67656 41.9329 4.85701C41.9231 5.12703 41.9544 5.39697 42.0257 5.65749C42.0653 5.8442 42.1216 6.09028 42.2005 6.38162C42.1447 6.45962 42.1113 6.55169 42.1046 6.64751C42.0985 6.67543 42.0985 6.70439 42.1049 6.73228C42.1113 6.76017 42.1236 6.7863 42.1414 6.80876C42.1735 6.83117 42.2122 6.84214 42.2512 6.83987C42.3808 6.83987 42.3301 6.79461 42.4514 6.79461C42.5726 6.79461 42.7811 6.83419 42.8937 6.83419C42.9796 6.83019 43.0654 6.82169 43.1502 6.80876C43.1502 6.80876 43.1502 6.83137 43.2179 6.83137C43.2441 6.83143 43.2698 6.82354 43.2912 6.80876C43.3107 6.79038 43.3249 6.76686 43.3319 6.74087C43.3389 6.71488 43.3383 6.68743 43.3308 6.66167Z" fill="white"/>
<path d="M38.5987 5.50474C38.7904 5.42837 38.8158 5.05783 38.8074 4.90508C38.7927 4.75319 38.7495 4.60542 38.6806 4.46946V4.44968C38.5791 4.19792 38.5226 4.18379 38.5 4.18662C38.4777 4.18944 38.4662 4.23186 38.3731 4.30823L38.3168 4.3535C38.2859 4.38178 38.2661 4.40441 38.238 4.42705L38.1959 4.45816C38.1343 4.5018 38.064 4.5317 37.9899 4.54583C37.9394 4.54483 37.8898 4.53263 37.8444 4.51013C37.7992 4.48764 37.7594 4.45541 37.7279 4.41572C37.6869 4.47153 37.6587 4.53562 37.6451 4.60355C37.6314 4.67147 37.6328 4.74155 37.649 4.80889C37.6936 4.91814 37.7727 5.00959 37.8745 5.06913C38.2324 5.35199 38.4381 5.49627 38.5507 5.50192C38.5666 5.50578 38.5828 5.50673 38.5987 5.50474Z" fill="white"/>
<path d="M42.7213 35.053C42.885 36.5419 41.7234 37.8434 40.231 37.8434C38.7386 37.8434 37.5771 36.5419 37.7404 35.053L38.9009 24.484C38.9758 23.8035 39.5487 23.2883 40.231 23.2883C40.9131 23.2883 41.4862 23.8035 41.5609 24.484L42.7213 35.053Z" fill="white"/>
<path fill-rule="evenodd" clip-rule="evenodd" d="M33.498 21.219C33.498 20.91 33.7475 20.6595 34.0555 20.6595H34.2872C34.5952 20.6595 34.8447 20.91 34.8447 21.219V34.1749C34.8447 37.1608 37.2564 39.581 40.2311 39.581C43.2059 39.581 45.6176 37.1608 45.6176 34.1749V21.219C45.6176 20.91 45.8674 20.6595 46.1751 20.6595H46.4068C46.7148 20.6595 46.9642 20.91 46.9642 21.219V34.3679C46.9642 37.7052 44.5539 40.4773 41.3852 41.0268V42.69C41.3852 42.9988 41.1357 43.2495 40.8277 43.2495H39.6344C39.3263 43.2495 39.0769 42.9988 39.0769 42.69V41.0268C35.9081 40.4773 33.498 37.7052 33.498 34.3679V21.219Z" fill="white"/>
<path d="M40.3348 22.4563C41.0213 22.4563 41.5779 21.8978 41.5779 21.2088C41.5779 20.5197 41.0213 19.9612 40.3348 19.9612C39.6483 19.9612 39.0918 20.5197 39.0918 21.2088C39.0918 21.8978 39.6483 22.4563 40.3348 22.4563Z" fill="white"/>
</g>
<defs>
<radialGradient id="paint0_radial_58_11" cx="0" cy="0" r="1" gradientUnits="userSpaceOnUse" gradientTransform="translate(40.343 39.0822) rotate(90) scale(33.6134 33.4913)">
<stop stop-color="#F15E2E"/>
<stop offset="1" stop-color="white"/>
</radialGradient>
<radialGradient id="paint1_radial_58_11" cx="0" cy="0" r="1" gradientUnits="userSpaceOnUse" gradientTransform="translate(40.336 39.1527) rotate(90) scale(34.9336 34.8067)">
<stop offset="0.515625" stop-color="#F15E2E"/>
<stop offset="1" stop-color="#F15A29"/>
</radialGradient>
<clipPath id="clip0_58_11">
<rect width="80" height="94" fill="white"/>
</clipPath>
</defs>
</svg>
