<svg width="63" height="63" viewBox="0 0 63 63" fill="none" xmlns="http://www.w3.org/2000/svg">
<path d="M53.7076 21.3938C53.3401 21.1575 53.3401 20.9213 52.9989 20.79C52.7192 20.6877 52.4123 20.6877 52.1326 20.79C49.6537 21.2251 47.1245 21.2958 44.6251 21C42.9451 20.8163 43.5226 20.6325 40.7401 20.16C39.0222 19.7486 37.2549 19.5807 35.4901 19.6613C33.7576 19.8713 33.3639 20.4225 32.6814 20.0025C31.9989 19.5825 31.8151 18.69 31.4476 16.8263C31.4075 16.7161 31.4075 16.5953 31.4476 16.485C31.4476 16.2225 31.8939 16.1438 32.1564 16.065C32.4189 15.9863 32.8651 16.065 32.9176 15.435C32.9866 15.1233 32.9719 14.7989 32.8751 14.4946C32.7783 14.1904 32.6028 13.9171 32.3664 13.7025C32.1301 13.4925 31.2376 13.965 31.1326 14.3588C30.7652 15.3225 30.7652 16.3876 31.1326 17.3513C31.3951 17.955 31.3164 18.3225 30.5551 18.1913C29.7939 18.06 30.0039 18.1913 30.0039 18.6638C30.0429 19.0917 30.0429 19.5222 30.0039 19.95H29.6364C28.3008 19.8188 26.9557 19.8188 25.6201 19.95C25.054 20.0064 24.4926 20.1029 23.9401 20.2388C22.3651 20.6325 21.2889 21 21.0001 21C17.2989 22.1288 12.3639 20.6588 11.0251 21.42C10.7158 21.6371 10.3523 21.7643 9.97513 21.7875C9.47638 21.7875 9.16138 21.7875 9.13513 21.7875C9.10888 21.7875 9.66013 22.3125 10.3164 22.3913C10.5321 22.4426 10.7569 22.4426 10.9726 22.3913C11.2437 22.2984 11.507 22.1843 11.7601 22.05C12.043 21.9676 12.3435 21.9676 12.6264 22.05C14.3538 22.5179 16.1067 22.886 17.8764 23.1525C18.3221 23.1838 18.7694 23.1838 19.2151 23.1525C20.8132 22.9124 22.4313 22.8332 24.0451 22.9163C25.0015 22.9271 25.9263 23.2601 26.6701 23.8613C27.0237 24.2273 27.3083 24.6541 27.5101 25.1213C27.993 26.0676 28.2704 27.1053 28.3239 28.1663C28.3797 29.3144 28.1545 30.4588 27.6676 31.5C26.8014 33.4163 25.0426 33.705 22.7064 35.1488C19.9171 37.182 17.4862 39.6661 15.5139 42.4988C12.8889 45.6225 12.8889 46.3313 11.3926 47.0663C10.2109 47.5376 9.1901 48.3396 8.45263 49.3763C8.32138 49.6388 7.98013 50.295 8.24263 50.7675C8.35907 50.9739 8.54518 51.1321 8.76763 51.2138C9.58138 51.5288 10.5001 51.6338 10.8151 50.4263C11.1301 49.2188 12.0751 48.615 13.9126 47.25C14.3144 46.9276 14.7351 46.6295 15.1726 46.3575C16.6451 45.4453 18.1801 44.6383 19.7664 43.9425C22.7589 42.4988 22.5751 41.7375 25.4101 40.3463C26.6765 39.7194 28.005 39.2268 29.3739 38.8763H31.3689L32.4451 39.165C33.6545 39.4696 34.882 39.6976 36.1201 39.8475C37.7503 39.9595 39.3871 39.7727 40.9501 39.2963C40.3725 40.7909 40.1566 42.401 40.3201 43.995C40.5279 45.7819 41.2175 47.4786 42.3151 48.9038C41.2914 49.6125 41.1339 50.085 41.1076 50.3475C41.0961 50.549 41.1303 50.7504 41.2075 50.9368C41.2848 51.1231 41.4032 51.2896 41.5539 51.4238C41.7396 51.5716 41.9731 51.6463 42.2101 51.6338C42.9976 51.6338 42.7089 51.3713 43.4439 51.3713C44.1789 51.3713 45.4389 51.6338 46.0689 51.6338C46.596 51.6202 47.1218 51.5763 47.6439 51.5025C47.6439 51.5025 47.6439 51.6338 48.0639 51.6338C48.4839 51.6338 48.7464 50.5838 48.7464 50.5838H47.8014L45.8589 49.875L43.4701 48.6675C44.0733 45.7821 44.5028 42.8631 44.7564 39.9263C44.9234 38.8328 44.7201 37.7148 44.1789 36.75C43.7851 36.1725 43.1551 35.6213 40.9501 34.86C36.9601 33.495 35.3851 34.0463 34.6239 32.8125C34.3965 32.2678 34.2793 31.6834 34.2793 31.0932C34.2793 30.5029 34.3965 29.9185 34.6239 29.3738C35.1489 27.6413 36.0676 26.9325 36.0939 25.2788C36.1428 24.7241 36.0984 24.1651 35.9626 23.625C36.3564 23.625 36.9601 23.625 37.6689 23.625C39.0439 23.5252 40.4114 23.3411 41.7639 23.0738C42.545 22.9502 43.3357 22.8975 44.1264 22.9163C44.5284 22.9438 44.9319 22.9438 45.3339 22.9163C47.2501 22.6275 47.5914 22.9163 49.0351 22.47C50.4789 22.0238 51.1351 21.945 51.1351 21.945C51.8701 21.7088 52.1326 21.5775 52.5526 21.6563C52.9726 21.735 53.2876 22.05 53.9176 22.0763C54.2514 22.1245 54.5908 22.0396 54.8626 21.84C54.8626 21.84 54.2589 21.7875 53.7076 21.3938Z" fill="#5B1600"/>
<path d="M26.4077 16.5113C27.2151 16.9946 28.1052 17.3239 29.0327 17.4826C30.5289 17.9026 30.7914 17.6926 30.8439 17.4826C30.8964 17.2726 30.8439 17.1676 30.8439 16.4851C30.857 16.3454 30.857 16.2048 30.8439 16.0651C30.8323 15.864 30.8323 15.6624 30.8439 15.4613V15.2776C30.8677 14.8382 30.984 14.4089 31.1852 14.0176C31.3631 13.7922 31.5907 13.6109 31.8503 13.488C32.1098 13.365 32.3943 13.3037 32.6814 13.3088C32.5709 12.9179 32.3711 12.5579 32.0978 12.2573C31.8245 11.9566 31.4851 11.7235 31.1064 11.5763C30.4683 11.3583 29.7758 11.3583 29.1377 11.5763C26.3027 12.3376 24.8852 12.7051 24.7014 13.3613C24.1239 14.6213 25.6989 16.0126 26.4077 16.5113Z" fill="#5B1600"/>
</svg>
