<svg width="57" height="57" viewBox="0 0 57 57" fill="none" xmlns="http://www.w3.org/2000/svg">
<path d="M41.5865 21.375C41.8677 21.3092 42.1603 21.3092 42.4415 21.375C43.0801 21.4228 43.6795 21.7014 44.1277 22.1588C44.8738 22.8075 45.4592 23.6205 45.8377 24.5338C46.3539 25.6886 46.6979 26.9129 46.859 28.1675C47.049 29.83 46.574 30.21 46.7165 32.3238C46.7165 32.585 46.7165 33.1788 46.7165 34.105C46.7165 35.0313 46.7165 35.34 46.7165 35.72C46.8042 35.5284 46.8757 35.3298 46.9302 35.1263C46.9731 34.8031 46.9731 34.4757 46.9302 34.1525C46.9302 32.9888 49.3052 30.8513 49.3052 28.5238C49.3968 27.4954 49.0813 26.4721 48.4265 25.6738C47.5715 24.9138 46.669 24.2013 45.7902 23.465C45.0326 22.5669 44.342 21.6144 43.724 20.615C43.2947 19.8024 42.9905 18.9297 42.8215 18.0263C42.8215 17.5513 43.154 17.4088 43.5102 17.3138C43.8665 17.2188 44.1752 17.3138 44.2227 16.72C44.284 16.427 44.2704 16.1232 44.1833 15.8368C44.0961 15.5504 43.9381 15.2905 43.724 15.0813C43.4627 14.8913 42.6315 15.3188 42.5365 15.6988C42.2043 16.6116 42.2043 17.6122 42.5365 18.525C42.7977 19.095 42.7027 19.4275 41.9902 19.3325C41.9275 19.3012 41.8584 19.2849 41.7883 19.2849C41.7183 19.2849 41.6491 19.3012 41.5865 19.3325C41.4677 19.3325 41.5865 19.6413 41.5865 19.7125C41.6674 20.2638 41.6674 20.8238 41.5865 21.375Z" fill="#5B1600"/>
<path d="M47.6187 41.8476C47.0487 41.6814 46.5974 41.6576 46.3124 41.2539C46.2063 41.064 46.1391 40.8549 46.1146 40.6388C46.0902 40.4227 46.109 40.2039 46.1699 39.9951C46.3605 38.7596 46.4873 37.515 46.5499 36.2664C46.5499 35.7676 46.5499 34.6751 46.5499 32.4901C46.5143 32.0396 46.5143 31.5869 46.5499 31.1364C46.7159 30.188 46.7637 29.2227 46.6924 28.2626C46.5623 26.9666 46.2255 25.6997 45.6949 24.5101C45.3577 23.5418 44.7161 22.7087 43.8662 22.1351C43.5986 21.9221 43.2882 21.7694 42.9562 21.6874C42.6242 21.6054 42.2784 21.5961 41.9424 21.6601C40.8737 22.0876 40.8262 24.0351 40.8262 24.3439C40.8134 25.2206 41.0436 26.0837 41.4912 26.8376C41.7287 27.1939 41.9662 27.5739 42.1799 27.9539C42.8088 28.9957 43.2584 30.1357 43.5099 31.3264C43.7712 32.6564 43.5099 32.3951 43.9374 35.6726C44.2224 38.2376 44.3649 39.5201 44.4362 39.7814C44.6081 40.334 44.6646 40.916 44.6024 41.4914C44.6024 42.2039 44.2224 42.5126 44.3887 42.7739C44.5549 43.0351 45.4099 42.9401 46.4549 42.8926C47.6484 42.9555 48.8376 43.0823 50.0174 43.2726C50.0174 43.1064 48.9487 42.2276 47.6187 41.8476Z" fill="#5B1600"/>
<path d="M43.4387 34.3662C43.4004 32.4881 43.0055 30.6343 42.2749 28.9037C42.0136 28.4287 41.7524 27.9537 41.4674 27.5024C41.5571 28.5082 41.7078 29.5075 41.9186 30.4949C41.956 31.2233 41.7282 31.9404 41.2774 32.5137C40.7542 32.8684 40.1265 33.0358 39.4961 32.9887C38.2945 32.8767 37.0826 32.9649 35.9099 33.2499C35.4291 33.3748 34.9602 33.5417 34.5086 33.7487C33.487 34.3214 32.6224 35.1371 31.9911 36.1237C30.1929 38.1159 27.687 39.3262 25.0086 39.4962C24.1774 39.4962 24.0349 39.4962 21.7549 39.4962C20.6848 39.4373 19.6115 39.477 18.5486 39.6149C16.1736 40.1374 15.1286 42.3699 14.3449 41.9899C13.9174 41.7524 14.1074 41.0637 13.3474 40.5887C13.2179 40.4871 13.0687 40.4135 12.9092 40.3726C12.7498 40.3317 12.5836 40.3244 12.4211 40.3512C12.1938 40.4102 11.9931 40.5441 11.8511 40.7312C11.0674 41.6337 11.2099 42.1799 10.7112 42.5837C10.2124 42.9874 9.09615 42.5837 7.52865 43.1062C7.3149 43.1062 7.0774 43.2962 7.05365 43.4624C7.0299 43.6287 8.00365 44.0087 8.3599 44.0799C9.51545 44.3301 10.7075 44.3623 11.8749 44.1749C16.5587 43.52 21.2776 43.1473 26.0061 43.0587C30.7561 43.0587 30.5424 43.9137 33.6299 43.5812C37.1944 43.1205 40.5718 41.7187 43.4149 39.5199C43.5772 39.4982 43.7276 39.423 43.8424 39.3062C43.7949 37.6674 43.5812 36.0049 43.4387 34.3662Z" fill="#5B1600"/>
<path d="M38.4514 17.5275C39.181 17.9765 39.9855 18.2903 40.8264 18.4538C42.2277 18.8338 42.4652 18.6438 42.5364 18.4538C42.6077 18.2638 42.5364 18.1688 42.5364 17.5275V17.2188C42.5364 16.9813 42.5364 16.8388 42.5364 16.6488C42.5303 16.5539 42.5303 16.4587 42.5364 16.3638C42.516 15.9645 42.5892 15.566 42.7502 15.2C42.9232 14.9883 43.1403 14.817 43.3865 14.698C43.6326 14.5791 43.9018 14.5153 44.1752 14.5113C44.0719 14.1534 43.8905 13.823 43.6441 13.5437C43.3977 13.2644 43.0924 13.0433 42.7502 12.8963C42.1505 12.6863 41.4973 12.6863 40.8977 12.8963C38.2377 13.6088 36.8839 13.965 36.7177 14.5825C36.2902 15.7463 37.7864 17.0525 38.4514 17.5275Z" fill="#5B1600"/>
</svg>
