<svg width="53" height="53" viewBox="0 0 53 53" fill="none" xmlns="http://www.w3.org/2000/svg">
<path d="M48.4286 34.428C48.2484 34.2977 48.0465 34.2005 47.8323 34.1409C47.6647 34.13 47.4968 34.156 47.3404 34.2171C47.1839 34.2781 47.0428 34.3727 46.9269 34.4942C46.6078 32.4269 45.7553 30.4784 44.4536 28.8409C43.5206 27.6714 42.3741 26.6897 41.0748 25.948L38.3586 24.8217C38.0056 21.332 36.6218 18.0264 34.3836 15.3259C33.5899 14.3238 32.5355 13.5597 31.3361 13.1176C30.149 12.6795 28.8562 12.6161 27.632 12.936C26.4078 13.2558 25.3112 13.9435 24.4902 14.9063C24.3211 15.1593 24.1873 15.4342 24.0927 15.7234C23.9216 16.4996 23.631 17.2446 23.2315 17.9317C22.3958 19.0472 21.3538 19.9918 20.1619 20.7142C17.7548 22.6355 16.5181 23.5851 16.0102 24.8438C15.7804 25.3796 15.5957 25.9336 15.4581 26.5001C15.4581 26.7871 15.3036 27.0742 15.2373 27.3171C15.3757 27.3413 15.5096 27.386 15.6348 27.4496L17.004 28.0459C17.269 28.2005 17.4015 28.2888 17.4236 28.4213C17.408 28.5626 17.3458 28.6947 17.2469 28.7967L17.004 29.0176C16.156 29.7261 15.6044 30.7268 15.4581 31.8221C15.4314 32.0233 15.4785 32.2272 15.5906 32.3963C15.7452 32.7496 16.0544 33.0588 16.2752 33.0367C16.6014 32.9614 16.9018 32.8013 17.1461 32.5724C17.3905 32.3436 17.57 32.0543 17.6665 31.7338C17.8652 31.248 17.6665 31.0713 17.2911 30.8063C16.9156 30.5413 16.6506 30.1438 17.004 29.7463C17.7248 28.8346 18.6272 28.0826 19.654 27.538L20.0073 27.4055C20.7565 27.3605 21.4978 27.2271 22.2156 27.008C23.4965 26.5884 24.0706 25.2192 25.3736 23.3201C26.2545 22.0979 27.2291 20.9461 28.2886 19.8751C29.1332 21.352 30.1406 22.7298 31.2919 23.9826C33.8315 26.7871 35.9956 27.803 40.9644 31.248C42.2011 32.1092 44.1002 33.4563 46.3748 35.1788C46.2644 36.2388 46.1319 37.3871 46.0215 38.3588C45.9999 38.5202 45.9407 38.6742 45.8487 38.8085C45.7566 38.9428 45.6342 39.0535 45.4915 39.1317H44.5419C44.5419 39.1317 44.5419 40.1917 45.359 40.1034H45.624L46.2202 39.9709H46.949C47.1919 39.9709 47.5673 39.7721 47.6556 38.8667C47.744 37.9613 47.8765 37.4976 48.1194 37.1001C48.3623 36.7026 48.5831 36.4596 48.8923 35.9738C48.972 35.8439 49.0233 35.6987 49.0429 35.5476C49.0626 35.3966 49.0501 35.243 49.0064 35.0971C48.9626 34.9512 48.8885 34.8162 48.7889 34.7008C48.6893 34.5855 48.5665 34.4926 48.4286 34.428Z" fill="#5B1600"/>
<path d="M15.4586 32.7717C15.2928 32.5625 15.1929 32.3089 15.1715 32.0429C15.1783 31.6008 15.2761 31.1648 15.4586 30.7621C15.4973 30.6711 15.5415 30.5826 15.5911 30.4971C15.5911 30.2983 15.8119 30.1879 15.9444 29.9671C16.0261 29.8469 16.0999 29.7215 16.1652 29.5917C16.5186 28.9954 16.7394 28.9292 16.7394 28.7525C16.7492 28.7318 16.7543 28.7092 16.7543 28.6862C16.7543 28.6633 16.7492 28.6407 16.7394 28.62C16.6069 28.4654 16.2536 28.2225 15.1273 27.9575L14.2881 27.7808H14.0231H13.6477C13.2225 27.7261 12.7921 27.7261 12.3669 27.7808C11.4836 27.7808 9.38565 28.355 9.09856 29.5475C9.09856 30.0775 9.56231 30.7842 10.7548 31.9546L12.2344 33.3679L12.4994 33.6108C10.8873 35.3333 9.62856 37.5417 8.83356 38.5133C8.07569 38.5151 7.32547 38.6651 6.62523 38.955L5.98481 39.2421L3.95315 39.75C3.94676 39.8222 3.95591 39.895 3.97998 39.9633C4.00405 40.0317 4.04248 40.0942 4.09268 40.1465C4.14289 40.1988 4.20372 40.2397 4.27106 40.2666C4.33841 40.2934 4.41073 40.3055 4.48315 40.3021H5.4769C5.78606 40.3021 6.49273 40.1696 6.9344 40.1033C7.10953 40.0704 7.28926 40.0704 7.4644 40.1033C7.82391 40.1446 8.18696 40.1446 8.54648 40.1033C8.8155 40.1009 9.07923 40.0284 9.31161 39.8928C9.544 39.7573 9.73698 39.5634 9.87148 39.3304C11.4964 37.6909 13.0158 35.9502 14.4206 34.1187C15.0803 34.053 15.7006 33.7738 16.1873 33.3237C15.9085 33.1926 15.6603 33.0045 15.4586 32.7717Z" fill="#5B1600"/>
</svg>
