<svg width="55" height="55" viewBox="0 0 55 55" fill="none" xmlns="http://www.w3.org/2000/svg">
<path d="M50.6459 44.8021L48.8126 44.9625L46.7272 44.0917L43.2209 42.625C43.9845 39.8957 44.5966 37.1262 45.0543 34.3292C45.4593 31.6256 45.7194 28.9023 45.8334 26.1709C44.2913 20.9239 41.0712 16.3273 36.6668 13.0855C34.2466 11.3517 31.5159 10.0991 28.623 9.39588C25.5316 8.44779 22.227 8.44779 19.1355 9.39588C16.2022 10.45 12.2605 12.9709 11.9168 15.7438C11.7814 17.3671 11.7355 18.9967 11.7793 20.625C11.7793 20.8771 11.7793 21.1063 11.7793 21.2896C11.794 21.5491 11.794 21.8093 11.7793 22.0688C11.2479 23.0113 10.618 23.8947 9.9001 24.7042C9.41885 25.2771 8.84593 24.8875 8.3876 24.5438C7.92926 24.2 7.65426 23.8563 7.03551 24.2459C6.62705 24.4432 6.27701 24.7435 6.01984 25.1172C5.76267 25.4909 5.60724 25.9251 5.56885 26.3771C5.56885 26.8355 6.82926 27.4313 7.37926 27.225C8.7659 26.7307 9.92886 25.7548 10.6563 24.475C11.1147 23.6271 11.5959 23.4209 12.123 24.475C12.1845 24.6237 12.288 24.7511 12.4209 24.8417L12.7876 25.4834C13.4465 26.5216 13.934 27.659 14.2313 28.8521C14.553 30.2109 14.6152 31.6182 14.4147 33C14.4147 33.8748 14.1335 34.7264 13.6126 35.4292C13.1218 35.9768 12.4589 36.3405 11.7334 36.4605C11.6669 38.8225 11.7281 41.1863 11.9168 43.5417C11.3897 45.2375 12.2376 46.2917 14.2084 45.8334C14.5113 45.7763 14.8222 45.7763 15.1251 45.8334C15.698 45.8334 15.7209 46.0855 16.1563 46.0855H18.3334C18.432 46.0942 18.5313 46.08 18.6235 46.044C18.7156 46.008 18.7983 45.9512 18.8648 45.8779C18.9314 45.8047 18.9801 45.7171 19.0072 45.6219C19.0343 45.5267 19.039 45.4265 19.0209 45.3292L16.5001 44.7105L13.8876 43.5417C14.1168 42.35 14.3001 41.25 14.4376 40.448C14.6897 38.9125 15.148 36.2313 15.4918 33.1146C15.4918 33.1146 16.4772 24.1313 17.9209 22.5271L18.3334 22.0917C18.4531 21.9564 18.5604 21.8107 18.6543 21.6563C19.3358 20.7629 19.8982 19.7845 20.3272 18.7459C20.7397 17.7605 21.473 16.8667 22.2293 16.798C23.6272 16.6605 23.7876 19.823 26.3313 21.5646C28.4855 23.0313 29.998 22.0459 33.848 22.9396C36.2297 23.5126 38.4784 24.5397 40.4709 25.9646C39.8428 27.2944 39.4401 28.7194 39.2793 30.1813C39.2004 32.369 39.4554 34.5559 40.0355 36.6667C40.3563 38.1792 40.8147 40.173 41.4563 42.5334C41.0017 43.1652 40.732 43.9111 40.6772 44.6875C40.6266 44.9137 40.6271 45.1483 40.6786 45.3743C40.7301 45.6003 40.8314 45.8119 40.9751 45.9938C41.2364 46.1755 41.5511 46.2643 41.8689 46.2459C42.923 46.2459 42.5105 45.8792 43.4959 45.8792C44.4813 45.8792 46.1772 46.2 47.0938 46.2C47.7921 46.1674 48.4882 46.0986 49.1793 45.9938C49.1793 45.9938 49.1793 46.1771 49.7293 46.1771C49.9418 46.1775 50.1495 46.1136 50.3251 45.9938C50.4844 45.8449 50.5989 45.6543 50.6556 45.4438C50.7123 45.2332 50.709 45.0109 50.6459 44.8021Z" fill="#5B1600"/>
<path d="M12.1688 35.4292C13.7271 34.8105 13.9334 31.8084 13.8646 30.5709C13.7448 29.3403 13.395 28.1432 12.8334 27.0417V26.8813C12.0084 24.8417 11.55 24.7271 11.3667 24.7501C11.1834 24.773 11.0917 25.1167 10.3355 25.7355L9.87713 26.1021C9.62505 26.3313 9.46463 26.5146 9.23547 26.698L8.89172 26.9501C8.39129 27.3038 7.82082 27.546 7.2188 27.6605C6.80791 27.6522 6.4039 27.5534 6.03553 27.3712C5.66716 27.189 5.34348 26.9279 5.08755 26.6063C4.75485 27.0584 4.52503 27.5777 4.41419 28.128C4.30335 28.6783 4.31417 29.2461 4.44588 29.7917C4.8088 30.6768 5.4531 31.4177 6.27922 31.9001C9.18963 34.1917 10.8625 35.3605 11.7792 35.4063C11.9066 35.4376 12.0386 35.4454 12.1688 35.4292Z" fill="#5B1600"/>
</svg>
