<svg width="78" height="78" viewBox="0 0 78 78" fill="none" xmlns="http://www.w3.org/2000/svg">
<path d="M58.6948 39.5526C56.6473 34.5151 55.4448 33.3776 54.9573 30.2901C54.7072 28.1548 54.1261 26.0715 53.2348 24.1151C53.0598 23.726 52.8645 23.3463 52.6498 22.9776C51.7073 21.2226 50.8623 20.1826 49.7248 18.0376C49.7248 18.0376 47.8723 18.9151 49.5623 20.7026C49.4357 21.2359 49.3595 21.78 49.3348 22.3276C49.1398 24.4401 50.6348 25.2851 50.0498 26.6176C49.4648 27.9501 49.3023 28.9251 49.8548 29.8676C50.2479 30.3712 50.8166 30.7078 51.4473 30.8101C52.1064 30.8775 52.7707 30.8775 53.4298 30.8101C53.4298 30.8101 53.1698 31.1026 51.8048 31.6551C51.0248 32.1101 50.5048 32.8251 50.0498 32.9226C45.1098 33.5076 43.5498 33.5401 41.8923 33.8326C40.0711 34.1083 38.2844 34.5768 36.5623 35.2301C34.1395 34.9455 31.7603 34.3671 29.4773 33.5076C28.2625 32.8927 26.9885 32.4027 25.6748 32.0451C24.9598 32.0451 23.1398 31.6551 23.0748 31.0701C23.0485 30.876 23.0485 30.6792 23.0748 30.4851C23.0748 29.7701 22.8473 29.6401 22.2298 29.7376C21.0273 29.9326 20.8648 29.3476 21.2873 28.4051C21.9343 26.8787 22.0037 25.1689 21.4823 23.5951C21.2223 22.7501 19.8248 22.1326 19.4998 22.4576C19.1234 22.8002 18.8441 23.236 18.69 23.721C18.536 24.206 18.5126 24.7231 18.6223 25.2201C18.6223 26.0326 19.2398 26.0651 19.8248 26.2276C20.0501 26.2605 20.2666 26.3378 20.4619 26.455C20.6571 26.5721 20.8272 26.7268 20.9623 26.9101C21.0063 27.0806 21.0063 27.2596 20.9623 27.4301C20.2373 31.0638 18.5414 34.4331 16.0548 37.1801C13.8773 40.4301 23.5298 54.4051 27.3648 56.6801L28.0148 57.0376C29.4786 57.7512 31.0009 58.3384 32.5648 58.7926C34.0598 59.1826 35.2623 59.4426 36.4648 59.6376C38.1251 59.8401 39.7974 59.927 41.4698 59.8976C42.9323 59.8976 59.3448 59.7026 62.0423 52.3901C62.9523 49.9851 61.5223 46.5076 58.6948 39.5526ZM43.3223 48.9451C41.99 47.8925 40.5259 47.0185 38.9673 46.3451C37.7232 45.7772 36.3698 45.4887 35.0023 45.5001C33.8987 45.6341 32.834 45.9913 31.873 46.5501C30.9119 47.1088 30.0747 47.8574 29.4123 48.7501H29.2498C29.1188 48.6197 28.9992 48.4783 28.8923 48.3276C27.5316 46.5441 26.7389 44.3926 26.6173 42.1526C26.5661 40.9269 26.4029 39.7085 26.1298 38.5126C27.9464 38.808 29.782 38.971 31.6223 39.0001C33.4408 39.1038 35.2638 39.1038 37.0823 39.0001C41.8474 38.4872 46.4997 37.2144 50.8623 35.2301C51.3604 35.415 51.8921 35.4926 52.4223 35.4576H52.6823C51.9695 36.8639 51.566 38.4065 51.4987 39.9816C51.4314 41.5568 51.702 43.1281 52.2923 44.5901C52.9053 45.9364 53.8166 47.1256 54.9573 48.0676C48.3273 50.7326 45.0773 50.1151 43.3223 48.9451Z" fill="#5B1600"/>
<path d="M22.2299 24.9276C22.2384 25.0792 22.2384 25.2311 22.2299 25.3826C22.2299 25.7076 22.2299 25.9676 22.2299 26.3901C22.2129 26.6064 22.2129 26.8238 22.2299 27.0401C22.2299 28.1126 21.9374 28.3726 22.2299 28.6001C22.5224 28.8276 22.7174 29.1201 25.1224 28.4376C26.5406 28.1714 27.8964 27.6423 29.1199 26.8776C30.2574 26.0976 32.7599 23.8876 32.3699 22.0676C32.0774 20.9951 29.8349 20.4101 25.3174 19.2076C24.2885 18.7721 23.1411 18.7032 22.0674 19.0126C21.4719 19.2592 20.9385 19.6349 20.5057 20.1126C20.0729 20.5903 19.7516 21.1581 19.5649 21.7751C20.0259 21.7884 20.4787 21.8995 20.8934 22.1013C21.308 22.303 21.675 22.5906 21.9699 22.9451C22.2015 23.5788 22.2903 24.2557 22.2299 24.9276Z" fill="#5B1600"/>
</svg>
