<svg width="54" height="54" viewBox="0 0 54 54" fill="none" xmlns="http://www.w3.org/2000/svg">
<path d="M50.6023 16.2676C50.4082 16.0289 50.1509 15.8496 49.8598 15.7501C49.7141 15.6875 49.5572 15.6553 49.3986 15.6553C49.24 15.6553 49.0831 15.6875 48.9373 15.7501C46.2812 16.1827 43.5777 16.2433 40.9049 15.9301C39.1273 15.7276 39.7349 15.5476 36.7874 15.0301C34.9693 14.5914 33.0976 14.4172 31.2299 14.5126C29.4074 14.7376 28.9799 15.3001 28.2599 14.8726C27.5399 14.4451 27.3374 13.5001 26.9999 11.4301C26.9561 11.3218 26.9561 11.2008 26.9999 11.0926C26.9999 10.8226 27.4499 10.7101 27.7649 10.6201C28.0799 10.5301 28.5074 10.6201 28.5523 9.96756C28.6278 9.63579 28.6133 9.28991 28.5105 8.96559C28.4076 8.64127 28.2202 8.35026 27.9674 8.12256C27.6974 7.92006 26.7749 8.39256 26.6399 8.82006C26.2922 9.86567 26.3402 11.0025 26.7749 12.0151C27.0448 12.6451 26.9549 13.0276 26.1449 12.9151C25.7399 12.9151 25.5599 12.9151 25.5824 13.4101C25.6148 13.867 25.6148 14.3256 25.5824 14.7826H25.2449C23.8231 14.6469 22.3916 14.6469 20.9698 14.7826C20.3714 14.8509 19.7778 14.9561 19.1923 15.0976C17.3473 15.4576 16.1774 15.7501 15.7499 15.9301C11.8124 17.1451 6.59235 15.5701 5.17485 16.3801C4.83813 16.6004 4.45111 16.732 4.04985 16.7626C3.50985 16.7626 3.17235 16.7626 3.12735 16.7626C3.08235 16.7626 3.68985 17.3251 4.40985 17.4151C4.63273 17.4587 4.86197 17.4587 5.08485 17.4151C5.48985 17.4151 5.60235 17.1451 5.91735 17.0551C6.21775 16.9616 6.53945 16.9616 6.83985 17.0551C8.70226 17.5685 10.5963 17.9594 12.5098 18.2251C12.9859 18.3024 13.4676 18.34 13.9498 18.3376C15.6391 18.0775 17.3509 17.9945 19.0574 18.0901C20.0393 18.1117 20.9843 18.469 21.7348 19.1026C22.1151 19.485 22.4203 19.9353 22.6349 20.4301C23.1293 21.437 23.4271 22.529 23.5124 23.6476C23.5724 24.7981 23.3884 25.9482 22.9724 27.0226C22.9724 27.0226 22.7698 27.4501 22.5674 27.7426C21.3299 29.5426 18.4949 29.1376 14.5799 30.4651C11.9698 31.3426 11.3624 32.1751 11.1599 32.4676C10.543 33.5351 10.3276 34.7878 10.5524 36.0001C10.8193 39.114 11.27 42.2094 11.9024 45.2701C11.0699 45.7201 10.2148 46.1476 9.35985 46.5751L7.26735 47.2501H6.25485C6.25485 47.2501 6.07485 48.3526 6.99735 48.3526C7.49235 48.3526 7.42485 48.2176 7.42485 48.2176C7.98435 48.2944 8.54775 48.3394 9.11235 48.3526C9.80985 48.3526 11.1599 48.0826 11.9474 48.0826C12.7348 48.0826 12.3973 48.3526 13.2523 48.3526C13.5008 48.364 13.7461 48.2928 13.9498 48.1501C14.1092 48.0061 14.2343 47.8284 14.3161 47.6298C14.3978 47.4313 14.4341 47.217 14.4223 47.0026C14.4223 46.7326 14.2199 46.2376 13.1399 45.4951C14.3038 43.9782 15.0347 42.1743 15.2549 40.2751C15.4421 38.5873 15.2102 36.8794 14.5799 35.3026C16.2418 35.7984 17.9799 35.989 19.7099 35.8651C21.0233 35.7215 22.3244 35.4809 23.6024 35.1451L24.7724 34.8301H26.9999L28.1474 35.1451C29.4258 35.4787 30.7267 35.7193 32.0399 35.8651C33.7772 35.9893 35.5227 35.7987 37.1924 35.3026C36.562 36.8794 36.3301 38.5873 36.5173 40.2751C36.7375 42.1743 37.4684 43.9782 38.6324 45.4951C37.5524 46.2376 37.3499 46.7326 37.3499 47.0026C37.3368 47.2151 37.3703 47.4278 37.4481 47.626C37.5258 47.8242 37.6458 48.0031 37.7999 48.1501C38.0036 48.2928 38.2489 48.364 38.4974 48.3526C39.3524 48.3526 39.0373 48.0826 39.8249 48.0826C40.6124 48.0826 41.9398 48.3526 42.6598 48.3526C43.217 48.34 43.7729 48.2949 44.3249 48.2176C44.3249 48.2176 44.3248 48.3526 44.7748 48.3526C45.6973 48.3526 45.5173 47.2501 45.5173 47.2501H44.5049L42.3899 46.6426L39.8473 45.3376C40.4496 42.2524 40.8704 39.1345 41.1073 36.0001C41.3266 34.795 41.1113 33.5513 40.4998 32.4901C40.0723 31.8826 39.3974 31.2976 37.0798 30.4876C32.8274 29.0251 31.1399 29.6326 30.3298 28.2376C30.086 27.6609 29.9604 27.0412 29.9604 26.4151C29.9604 25.789 30.086 25.1692 30.3298 24.5926C30.8699 22.7476 31.8599 22.0051 31.8824 20.2501C31.886 19.7004 31.8025 19.1536 31.6349 18.6301C32.0399 18.6301 32.6924 18.6301 33.4574 18.6301C34.9616 18.5141 36.457 18.3037 37.9349 18.0001C38.7877 17.9145 39.647 17.9145 40.4998 18.0001C40.9341 18.0369 41.3706 18.0369 41.8048 18.0001C43.8074 17.7076 44.1898 17.8651 45.7198 17.5276C47.2498 17.1901 47.9698 16.9876 47.9698 16.9876C48.4267 16.686 48.9537 16.5077 49.4998 16.4701C50.2649 16.4701 50.8273 17.0551 50.9623 16.8976C51.0973 16.7401 50.6923 16.4026 50.6023 16.2676Z" fill="#5B1600"/>
<path d="M21.6227 11.07C22.4424 11.5799 23.3507 11.931 24.3002 12.105C25.8977 12.555 26.1452 12.33 26.2127 12.105C26.2802 11.88 26.2127 11.79 26.2127 11.0475V10.7325C26.2127 10.4625 26.2127 10.305 26.2127 10.08V9.76504C26.2288 9.30071 26.3521 8.84639 26.5727 8.43754C26.7679 8.20212 27.0118 8.01182 27.2875 7.87975C27.5633 7.74769 27.8645 7.67699 28.1702 7.67254C28.0451 7.26434 27.8309 6.88906 27.5429 6.57385C27.2549 6.25865 26.9005 6.01141 26.5052 5.85004C25.8287 5.60793 25.0892 5.60793 24.4127 5.85004C21.3977 6.63754 19.9127 7.04254 19.7102 7.74004C19.1927 9.00004 20.8802 10.5525 21.6227 11.07Z" fill="#5B1600"/>
</svg>
