<svg width="57" height="57" viewBox="0 0 57 57" fill="none" xmlns="http://www.w3.org/2000/svg">
<path d="M23.2989 15.8413C24.2352 16.5576 25.2991 17.0895 26.4339 17.4088C28.3339 18.1451 28.6902 17.9076 28.8089 17.7651C28.9277 17.6226 28.8089 17.3613 28.8089 16.4826C28.8089 16.2451 28.8089 16.1738 28.8089 15.9363C28.8089 15.6988 28.8089 15.4138 28.8089 15.1288V14.7488C28.8857 14.1918 29.0799 13.6575 29.3789 13.1813C29.6473 12.9188 29.9677 12.7156 30.3195 12.5846C30.6714 12.4537 31.0467 12.3981 31.4214 12.4213C31.3105 11.9151 31.089 11.4397 30.7729 11.0291C30.4567 10.6185 30.0537 10.2829 29.5927 10.0463C28.7688 9.76582 27.8753 9.76582 27.0514 10.0463C23.2752 10.6638 21.3989 10.9963 21.0664 11.8276C20.5677 13.1101 22.4439 15.1051 23.2989 15.8413Z" fill="#5B1600"/>
<path d="M47.8802 42.4412C46.3969 40.0873 44.2476 38.2273 41.7052 37.0975C39.3101 35.989 36.7187 35.3674 34.0814 35.2687C34.4459 33.7007 34.7313 32.1154 34.9364 30.5187C35.6489 24.5812 34.5802 23.6312 34.2239 23.3937L32.8939 22.61L31.2314 21.66C30.3596 20.2746 29.8606 18.6875 29.7827 17.0525C29.7827 16.3637 30.3052 16.245 30.8277 16.15C31.3502 16.055 31.7539 16.15 31.8727 15.4137C32.0108 15.0096 32.0373 14.5757 31.9496 14.1577C31.8618 13.7397 31.6629 13.3532 31.3739 13.0387C31.0652 12.7537 29.8777 13.2287 29.6639 13.7275C29.1311 14.9672 29.0553 16.3558 29.4502 17.6462C29.7352 18.4537 29.4502 18.9287 28.5952 18.6675C28.0964 18.525 27.8827 18.6675 27.8589 19.2137C27.8249 19.5651 27.7694 19.9141 27.6927 20.2587L26.1252 19.4987L22.6814 15.5325C22.3199 15.0689 21.8773 14.6746 21.3752 14.3687C21.1324 14.3174 20.8817 14.3174 20.6389 14.3687C17.8963 14.5585 15.2251 15.3275 12.8014 16.625H12.6352C11.6685 17.1374 10.9183 17.9803 10.5214 19L10.1414 19.6887L8.78768 21.375C8.45681 24.1804 8.52077 27.0185 8.97768 29.8062C9.40518 33.9625 9.50018 40.185 12.0652 45.4337C12.0652 45.4337 12.5877 46.8587 15.4139 46.9775C19.2199 46.9479 22.9674 46.0374 26.3627 44.3175C27.8168 43.6595 29.1686 42.7957 30.3764 41.7525C30.9435 42.0472 31.5308 42.3011 32.1339 42.5125C33.5216 42.9565 34.9773 43.1495 36.4327 43.0825C35.6183 43.213 34.8214 43.4361 34.0577 43.7475C33.024 44.1919 32.0694 44.8016 31.2314 45.5525C31.2314 44.6975 31.2314 43.795 30.6139 43.5575C29.9964 43.32 29.4502 43.5575 28.4289 44.4837C27.4077 45.41 26.6477 44.4837 25.2464 45.2437C24.7753 45.4959 24.3229 45.7817 23.8927 46.0987C22.1589 45.6 22.1589 47.0012 22.1589 47.0012C24.6527 47.0012 39.8764 47.7612 45.0539 46.5737C45.9089 46.3837 47.9277 45.9087 48.3552 44.5787C48.4277 44.2089 48.423 43.8281 48.3413 43.4603C48.2595 43.0924 48.1025 42.7455 47.8802 42.4412ZM29.7827 32.7275C29.7827 33.1312 26.6477 32.7275 24.5339 33.7725C21.9452 35.1025 22.6339 37.8575 19.9977 40.09C18.5281 41.2567 16.7196 41.9151 14.8439 41.9662C15.2801 40.347 15.345 38.6502 15.0339 37.0025C14.4159 34.1091 12.717 31.5607 10.2839 29.8775C11.8277 29.2125 12.1602 28.6187 12.1839 28.215C12.2077 27.8112 12.1839 27.2175 11.1152 26.4575C10.0464 25.6975 10.9727 24.89 10.2364 23.6787C10.0379 23.375 9.82388 23.0817 9.59518 22.8C9.80893 22.0875 9.59518 21.7075 9.38143 21.5175L9.64268 21.375L10.4977 20.6862C10.9146 20.3113 11.3035 19.9065 11.6614 19.475C11.8989 19.2137 11.9464 19.285 12.1839 19.095C12.638 18.7266 12.9965 18.254 13.2289 17.7175C14.3452 17.7175 15.6039 17.575 16.7677 17.4325C17.9314 17.29 19.4039 17.0525 20.5914 16.8387L26.1252 23.275C26.4814 24.6762 26.6002 25.1037 26.6239 25.1512C26.6163 25.2223 26.6163 25.2939 26.6239 25.365C26.6239 25.5075 26.7427 25.6737 26.8139 25.8162C27.2158 26.7143 27.7263 27.5598 28.3339 28.3337C29.283 29.6042 29.8066 31.1418 29.8302 32.7275H29.7827Z" fill="#5B1600"/>
</svg>
